<svg xmlns="http://www.w3.org/2000/svg" width="37.867" height="37.867" viewBox="0 0 37.867 37.867">
  <g id="about_me" data-name="about me" transform="translate(0.525 0.464)">
    <path id="Path_2" data-name="Path 2" d="M.574,36.863a.576.576,0,0,1-.555-.728L2.376,27.5a18.417,18.417,0,1,1,7.091,7.05l-8.745,2.3a.515.515,0,0,1-.147.009ZM9.547,33.35a.576.576,0,0,1,.288.075,17.266,17.266,0,1,0-6.331-6.3.576.576,0,0,1,.058.44L1.406,35.476l8.009-2.109A.639.639,0,0,1,9.547,33.35Z" transform="translate(0 0)" fill="#fff" stroke="#fff" stroke-width="1"/>
    <path id="Path_3" data-name="Path 3" d="M54.741,27.482a3.741,3.741,0,1,1,3.741-3.741A3.741,3.741,0,0,1,54.741,27.482Zm0-6.331a2.59,2.59,0,1,0,2.59,2.59A2.59,2.59,0,0,0,54.741,21.151Z" transform="translate(-36.325 -14.216)" fill="#fff" stroke="#fff" stroke-width="1"/>
    <path id="Path_4" data-name="Path 4" d="M54.741,70.252A3.741,3.741,0,0,1,51,66.511v-7.77a3.741,3.741,0,1,1,7.482,0v7.77A3.741,3.741,0,0,1,54.741,70.252Zm0-14.1a2.59,2.59,0,0,0-2.59,2.59v7.77a2.59,2.59,0,0,0,5.18,0v-7.77A2.59,2.59,0,0,0,54.741,56.151Z" transform="translate(-36.325 -39.144)" fill="#fff" stroke="#fff" stroke-width="1"/>
  </g>
</svg>
