<svg xmlns="http://www.w3.org/2000/svg" width="605.28" height="593.181" viewBox="0 0 605.28 593.181">
  <g id="_8219565_emails_security_protection_safety_shield_icon" data-name="8219565_emails_security_protection_safety_shield_icon" transform="translate(-23.374 -32.695)">
    <path id="Path_6" data-name="Path 6" d="M453.373,169.712a115.362,115.362,0,0,1-68.3,59.529c-8.006,2.54-16.45,4.209-24.8,3.257-11.752-1.346-22.6-7.962-30.088-17.142s-11.746-20.7-13.174-32.45c-1.587-13.035.375-26.869,7.619-37.834,4.978-7.543,12.431-13.86,14.546-22.653,1.9-7.9-.571-17.466,4.99-23.4,4.057-4.33,11.27-5.079,14.406-10.158,1.543-2.47,1.771-5.5,2.6-8.292s2.7-5.714,5.587-6.051c-1.975,1.625-1.492,4.806-.3,7.067s2.959,4.394,3.06,6.984c.292,7.1-11.682,9.981-11.333,17.079a5.651,5.651,0,1,0,11.251-.94c2.978.476,3.454,4.73,2.216,7.486s-3.429,5.333-3.175,8.336c.457,5.3,8.552,6.622,12.463,3.028s4.571-9.441,4.844-14.743.584-11.092,4.114-15.066c2.571-2.9,6.394-4.273,9.676-6.349s6.317-5.581,5.6-9.384c3.517,2.082,3.809,7.276,2.07,10.971s-4.971,6.482-7.479,9.7c-1.34,1.727-2.54,3.746-2.457,5.93s1.854,4.444,4.032,4.235c4.584-.387,3.917-8.952,8.374-10.082q.635,7.32,1.352,14.641a5.079,5.079,0,0,0,.711,2.54c1.409,1.956,4.6.971,6.3-.73,4.571-4.578,4.686-12,8.2-17.422,4.794-7.4,14.654-9.524,21.18-15.441,5.651-5.117,8.4-12.7,13.333-18.539,8.47-10.082,22.672-14.247,30.374-24.926-.152,6.933-8.546,10.216-12.628,15.815-3.809,5.257-3.676,12.451-6.584,18.266-3.968,7.892-12.679,11.9-19.276,17.688-7.384,6.463-12.241,15.238-16.946,23.879-1.352,2.489-2.743,5.079-2.857,7.917s1.492,5.943,4.248,6.578c3,.692,5.854-1.714,7.511-4.3s2.806-5.644,5.219-7.562c4.1,9.746-2.825,20.4-9.746,28.387-1.765,2.032-3.676,4.552-2.94,7.136s5.746,2.54,5.314-.089c2.419-.133,2.571,3.562,1.689,5.816s-1.181,5.822,1.219,6.127a3.675,3.675,0,0,0,2.755-1.27,29,29,0,0,0,6.927-9.3,11.924,11.924,0,0,1-1.556,13.333" transform="translate(-107.019 -2.262)" fill="#091010"/>
    <g id="Group_19" data-name="Group 19" transform="translate(111.932 46.864)">
      <path id="Path_7" data-name="Path 7" d="M574.608,146.48c3.625,9.974-4.317,20.241-12.323,27.206s-17.46,14.565-17.9,25.168c-.279,6.546,3.079,12.622,4.667,18.977,1.327,5.314,1.416,10.87,2.54,16.228a43.924,43.924,0,0,0,32.247,32.977c7.492,1.746,15.282,1.448,22.977,1.524,11.6.121,23.307,1.1,34.723-.952s22.857-7.708,28.66-17.746c2.089-3.606,3.384-7.619,5.568-11.2,4.571-7.435,12.508-12.019,18.857-18.019a53.967,53.967,0,0,0,16.6-35.18c-2.184,7.06-7.136,13.841-14.3,15.65s-15.98-3.555-15.631-10.933c.267-5.714,5.225-9.841,9.46-13.65s8.451-9.251,6.686-14.666a14.209,14.209,0,0,1-11.473,10.66,59.447,59.447,0,0,0,1.194-28.158,24.527,24.527,0,0,1-11.739,16.66c-4.394,2.54-10.387,3.435-14.247.159s-3.917-9.32-1.867-13.9,5.759-8.159,8.889-12.063c9.238-11.6,13.549-26.355,21.587-38.824,8.539-13.225,21.473-24.311,24.933-39.669a239.465,239.465,0,0,1-53.2,66.748c-5,4.362-10.343,8.609-16.673,10.6-4.032,1.27-8.419,1.594-12.095,3.689-3.175,1.816-5.511,4.774-8.044,7.416a52.7,52.7,0,0,1-14.374,10.578,11.3,11.3,0,0,1-5.848,1.581c-4.171-.324-7.022-4.832-6.94-9.016s2.311-7.993,4.66-11.428,4.952-6.9,5.955-10.958c-.775,11.365-19.809,14.812-19.93,26.2a199.3,199.3,0,0,0-2.667-27.193,39.3,39.3,0,0,1-9.314,20.9" transform="translate(-302.143 -55.639)" fill="#accbcb"/>
      <path id="Path_8" data-name="Path 8" d="M573.518,146.012c3.733,10.762-5.524,20.7-13.028,27.11-6.984,5.955-15.3,12.59-17.193,22.095-1.073,5.39.476,10.59,2.21,15.663a66.33,66.33,0,0,1,2.413,8.152c.635,3.054.914,6.165,1.3,9.257a48.171,48.171,0,0,0,3.956,14.647,44.723,44.723,0,0,0,7.619,11.327,44.132,44.132,0,0,0,24.393,13.631c6.044,1.073,12.178,1.073,18.273,1.073,6.279,0,12.559.292,18.838.343,11.092.089,22.393-.781,32.539-5.644a38.246,38.246,0,0,0,11.809-8.565,30.911,30.911,0,0,0,4.127-5.67c1.435-2.54,2.489-5.257,3.759-7.873a37.59,37.59,0,0,1,9.968-12.12c3.867-3.282,8-6.267,11.574-9.885A54.755,54.755,0,0,0,711.75,184.83c.089-1.219-1.721-1.365-2.063-.279-1.492,4.736-4.171,9.4-8.254,12.374a12.969,12.969,0,0,1-13,1.8c-3.873-1.676-7.1-5.359-6.565-9.8.635-5.143,5.276-8.832,8.889-12.063,4.355-3.917,9.1-9.631,7.2-15.911a1.067,1.067,0,0,0-2.038,0,13.244,13.244,0,0,1-10.717,9.93l1.27,1.3a61.205,61.205,0,0,0,1.2-28.717,1.067,1.067,0,0,0-2.044,0,23.727,23.727,0,0,1-6.787,12.7c-3.384,3.282-8.082,5.892-12.946,5.448s-7.536-4.7-7.32-9.371c.248-5.213,3.651-9.422,6.882-13.225a85.462,85.462,0,0,0,9.32-13.022c2.673-4.686,4.952-9.574,7.289-14.425a144.732,144.732,0,0,1,7.619-14.279,135.181,135.181,0,0,1,8.889-12.209c6.882-8.679,14.165-17.6,16.7-28.641.273-1.194-1.422-2.025-2.051-.863A239.423,239.423,0,0,1,693.1,86.864a237.335,237.335,0,0,1-24.838,27.822,138.155,138.155,0,0,1-14.057,12.26,38.51,38.51,0,0,1-7.993,4.648,65.859,65.859,0,0,1-8.889,2.457,20.616,20.616,0,0,0-8.057,3.809,80.34,80.34,0,0,0-6.381,6.438,50.793,50.793,0,0,1-7.187,6.057,39.194,39.194,0,0,1-8.3,4.654c-2.717,1.022-5.34.7-7.257-1.581a9.072,9.072,0,0,1-1.86-7.238c1-6.273,6.044-10.863,8.812-16.336a21.481,21.481,0,0,0,1.632-4.254l-2.2-.3c-.349,4.444-3.949,7.619-7.219,10.241-3.587,2.857-7.619,5.4-10.343,9.149a11.956,11.956,0,0,0-2.387,6.819h2.241a204.618,204.618,0,0,0-2.711-27.491c-.229-1.359-2.051-.832-2.2.3a38.4,38.4,0,0,1-8.984,20.114c-.933,1.079.635,2.667,1.581,1.581a41.053,41.053,0,0,0,9.65-21.72l-2.2.3a200.007,200.007,0,0,1,2.616,26.92,1.124,1.124,0,0,0,2.241,0c.1-4.444,3.5-7.657,6.743-10.266,3.6-2.9,7.657-5.422,10.495-9.143a12.757,12.757,0,0,0,2.692-6.793c.1-1.27-1.9-1.511-2.209-.3-1.632,6.3-6.787,10.838-9.282,16.749a13.946,13.946,0,0,0-1.029,8.832,10.311,10.311,0,0,0,4.184,6.089c2.54,1.67,5.574,1.359,8.254.222a45.427,45.427,0,0,0,8.413-4.806,54.368,54.368,0,0,0,7.346-6.2c2.2-2.235,4.165-4.768,6.686-6.679,2.667-2.019,5.854-2.813,9.06-3.543a39.826,39.826,0,0,0,9.009-2.99c5.714-2.844,10.584-7.193,15.295-11.428a238.667,238.667,0,0,0,26.666-28.272,240.757,240.757,0,0,0,21.72-32.12q1.162-2.07,2.286-4.159l-2.051-.863c-2.368,10.317-9.054,18.749-15.5,26.863a156.3,156.3,0,0,0-9.524,12.844,140.139,140.139,0,0,0-7.949,14.85c-2.483,5.174-4.914,10.393-7.816,15.352a73.38,73.38,0,0,1-4.622,6.984c-1.708,2.273-3.638,4.362-5.428,6.565-3.276,4.044-6.127,8.666-5.892,14.07.2,4.717,2.965,8.984,7.746,10.076,5.473,1.27,11.1-1.352,15.174-4.876a25.676,25.676,0,0,0,8.381-14.6h-2.044a58.754,58.754,0,0,1-1.194,27.6,1.067,1.067,0,0,0,1.3,1.27,15.308,15.308,0,0,0,12.216-11.428H695.9c1.9,6.241-3.975,11.428-8.089,15.143-3.873,3.5-8.178,7.8-8.1,13.428.057,4.717,3.517,8.609,7.663,10.457a14.793,14.793,0,0,0,14-1.041c5.174-3.175,8.546-8.7,10.343-14.387l-2.07-.279a53.121,53.121,0,0,1-10.857,28.437A64.958,64.958,0,0,1,688,223.787c-3.936,3.2-7.879,6.292-11.054,10.133a32.279,32.279,0,0,0-4.222,6.584c-1.219,2.5-2.241,5.079-3.581,7.543a31.111,31.111,0,0,1-9.778,10.6c-8.73,5.981-19.3,8.038-29.7,8.463-6.013.248-12.025,0-18.038-.133s-12.216.032-18.3-.3a48.691,48.691,0,0,1-15.543-3.124,42,42,0,0,1-11.72-7.187,42.761,42.761,0,0,1-13.917-22.907c-1.27-5.714-1.27-11.593-2.832-17.238-1.46-5.365-4.152-10.527-4.483-16.152-.59-9.974,7.289-17.409,14.133-23.492,7.181-6.349,15.581-13.752,16.584-23.961a16.032,16.032,0,0,0-.864-6.92c-.26-.724-1.416-.413-1.162.317Z" transform="translate(-301.624 -55.011)" fill="#accbcb"/>
      <path id="Path_9" data-name="Path 9" d="M172.478,356.48l-2.178,1.429a19.047,19.047,0,0,0-4.375,3.536,6.39,6.39,0,0,0-1.575,5.225,9.588,9.588,0,0,0,1.27,2.819l1.721,2.889a6.128,6.128,0,0,0,1.194,1.575,4.377,4.377,0,0,0,4.444.368,2.744,2.744,0,0,0,1.9-2.038,3.429,3.429,0,0,0-.635-2.013l-1.27-2.279c-.317-.559-.559-1.435,0-1.714a4.692,4.692,0,0,1-2.355-3.759,13.969,13.969,0,0,1,.508-4.571" transform="translate(-163.365 -165.076)" fill="#accbcb"/>
      <path id="Path_10" data-name="Path 10" d="M171.69,355.7c-4.032,2.419-10.647,6.032-8.368,11.841a26.469,26.469,0,0,0,2.076,3.809,10.8,10.8,0,0,0,2.286,3.174,5.537,5.537,0,0,0,6.6-.552,2.971,2.971,0,0,0,.673-3.575,23.148,23.148,0,0,0-1.143-2.1c-.191-.336-.406-.667-.578-1.016-.051-.108-.1-.248-.152-.349-.114-.2.064-.33-.159-.171a.87.87,0,0,0,0-1.492c-2.946-1.435-1.74-5.079-1.5-7.581.089-.921-1.27-.971-1.524-.2-1.117,3.086-1.035,7.466,2.159,9.276v-1.492c-1.987,1.27.273,3.981,1.016,5.308a2.063,2.063,0,0,1,.419,1.536,1.987,1.987,0,0,1-1.035,1,4.215,4.215,0,0,1-2.87.413c-1.1-.273-1.606-1.194-2.152-2.1-.667-1.117-1.365-2.222-2-3.352a5.149,5.149,0,0,1-.8-3.314,6.749,6.749,0,0,1,1.321-2.959c1.606-2.14,4.159-3.568,6.3-5.079.571-.413.063-1.346-.565-.965Z" transform="translate(-162.856 -164.78)" fill="#accbcb"/>
    </g>
    <path id="Path_11" data-name="Path 11" d="M117.2,414.25q-14.2-31.383-26.85-63.433-12.514-31.745-23.422-64.125-1.371-4.07-2.7-8.133a62.93,62.93,0,0,1-2.419-8.063,8.844,8.844,0,0,1,2.254-7.981,37.186,37.186,0,0,1,5.9-5.079c8.457-6.076,18.412-9.644,28.183-13.022a377.728,377.728,0,0,1,65.452-16.266q16.819-2.61,33.828-3.676c5.079-.324,10.7-.914,15.339,1.625,4.413,2.419,7.276,7.041,9.765,11.257,5.606,9.524,9.327,20.031,13.231,30.317q6.184,16.285,12.063,32.679,5.924,16.508,11.549,33.142c3.708,10.965,7.46,21.942,10.755,33.015,3.238,10.889,5.892,22.088,6.082,33.491a67.554,67.554,0,0,1-6.667,30.431c-4.324,9.066-10.247,17.269-16.584,25.015-6.127,7.492-12.482,14.952-19.327,21.8-6.609,6.609-14.266,12.762-23.492,15.123-10.432,2.667-21.009-.394-30.437-4.927-4.66-2.241-9.149-4.832-13.6-7.466a.933.933,0,1,0-.94,1.613c9.219,5.466,18.857,11.066,29.542,13a38.222,38.222,0,0,0,27.885-5.778c8.171-5.251,14.774-12.546,21.142-19.784,6.768-7.7,13.517-15.46,19.327-23.923,5.714-8.3,10.489-17.358,12.978-27.161,2.768-10.939,2.381-22.33.4-33.377-2.07-11.568-5.771-22.774-9.422-33.923q-5.619-17.181-11.574-34.285T243.212,282.33c-4.038-10.9-7.981-21.879-12.52-32.583a108.343,108.343,0,0,0-7.479-14.819c-2.5-4.038-5.416-8.254-9.72-10.546-4.622-2.438-10-2.133-15.047-1.829q-8.679.527-17.333,1.454a379.672,379.672,0,0,0-67.827,13.669,260.768,260.768,0,0,0-31.453,11.111,69.872,69.872,0,0,0-13.65,7.809c-3.771,2.838-8.139,6.292-8.3,11.428-.089,2.755.876,5.448,1.721,8.032q1.371,4.19,2.775,8.381,2.8,8.374,5.714,16.711,5.79,16.654,12.089,33.167,12.527,32.837,26.85,64.951,3.511,7.822,7.117,15.587c.33.711,1.371.089,1.054-.635Z" transform="translate(-13.325 -69.242)"/>
    <path id="Path_12" data-name="Path 12" d="M219.747,592.143a56.569,56.569,0,0,1-1.136,15.3c-.464,2.54-1.035,5.079-1.632,7.562q-.425,1.81-.889,3.613a19.09,19.09,0,0,0-.8,3.892.984.984,0,0,0,1.816.5,17.67,17.67,0,0,0,1.194-3.778c.317-1.27.635-2.54.933-3.765.635-2.54,1.13-5.143,1.511-7.746a56.372,56.372,0,0,0,.121-15.574c-.089-.692-1.181-.73-1.117,0Z" transform="translate(-70.068 -204.057)"/>
    <path id="Path_13" data-name="Path 13" d="M244.47,648.952c6.349-10.844,15.625-20.438,27.441-24.679s26.31-2.2,34.92,6.984c6.425,6.863,8.812,16.508,10.7,25.695a500.471,500.471,0,0,1,9.67,122.842c-.324,7.181-.8,14.38-.3,21.549a8.088,8.088,0,0,0,.6,2.933c.711,1.492,2.2,2.425,3.587,3.327a74.415,74.415,0,0,1,8.958,6.832c4.311,3.847,8.47,9.308,6.984,14.888-1.663,6.12-9.06,8.514-15.384,8.933A63.072,63.072,0,0,1,293.5,828.4a13.174,13.174,0,0,1-3.771-3.276c-1.771-2.54-1.771-5.835-1.9-8.92-1.365-33.377-25-61.865-31.263-94.677" transform="translate(-80.721 -215.209)" fill="#091010"/>
    <path id="Path_14" data-name="Path 14" d="M283.74,664.145a50.877,50.877,0,0,1,7.46-12c2.457-2.94,5.422-5.714,9.619-5.816a6.146,6.146,0,0,1,4.641,2.038,1.562,1.562,0,0,1,.527,1.213c-.07.394-.6.692-.889.413a10.26,10.26,0,0,1,10.006-.813,5.79,5.79,0,0,1,2.87,2.61,2.794,2.794,0,0,1-.133,2.819,1.733,1.733,0,0,1-2.578.216c2.121-.3,4.565.673,5.3,2.692s-1.149,4.66-3.225,4.121a3.175,3.175,0,1,1,.883,5.809,2.66,2.66,0,0,1,2.667,1.27,4.584,4.584,0,0,1,.533,3.029,7.358,7.358,0,0,1-3.035,4.92,2.406,2.406,0,0,1-3.81-1.771c-2.165,2.387-5.555,3.282-8.774,3.391s-6.438-.457-9.657-.438" transform="translate(-95.058 -224.034)" fill="#fff"/>
    <path id="Path_15" data-name="Path 15" d="M150.4,419.037a26.177,26.177,0,0,1,11.244-7.759,7.891,7.891,0,0,1,3.594-.571,3.352,3.352,0,0,1,2.8,2.07,2.167,2.167,0,0,1-1.575,2.794,12.251,12.251,0,0,1,4.692-1.479,4.227,4.227,0,0,1,4.1,2.229c.648,1.524-.476,3.651-2.127,3.581a8.3,8.3,0,0,1,4.609-.336,4.1,4.1,0,0,1,3.1,3.175,2.757,2.757,0,0,1-2.616,3.143c2.089-.419,4.514.14,5.714,1.9s.59,4.679-1.454,5.289c2.654.54,4.978,3.054,4.673,5.746s-3.809,4.628-6,3a5.536,5.536,0,0,1-1.53,9.32,4.635,4.635,0,0,1,.813,4.127c-.521,1.365-2.4,2.178-3.53,1.27a4.006,4.006,0,0,1-2.127,7.359,7.559,7.559,0,0,1-4.057-1.575,42.539,42.539,0,0,1-16.469-21.295c-.813-2.33-1.46-4.819-3.086-6.679" transform="translate(-46.377 -138.002)" fill="#091010"/>
    <path id="Path_16" data-name="Path 16" d="M150.511,419.011a25.873,25.873,0,0,1,9.136-6.692c1.657-.717,3.854-1.7,5.663-1.086a2.051,2.051,0,0,1,1.53,1.606,1.194,1.194,0,0,1-.99,1.308l.73,1.74c1.9-.876,4.3-1.987,6.349-.806a1.987,1.987,0,0,1,1.13,1.9,1.429,1.429,0,0,1-1.27,1.359l.279,2.063c1.841-.54,4.184-.889,5.67.635a2.082,2.082,0,0,1,.635,1.9,1.574,1.574,0,0,1-1.492,1.27l.292,2.165c1.613-.292,3.765.07,4.641,1.625.635,1.079.375,2.971-.946,3.416-.978.33-1.136,1.9,0,2.146,2.07.47,4.387,2.489,3.809,4.844-.438,1.746-2.717,2.952-4.273,1.873-1.035-.717-2.279.9-1.346,1.74a4.514,4.514,0,0,1-1.27,7.619,1.079,1.079,0,0,0-.381,1.473c.584.9,1.27,2.241.679,3.308a1.34,1.34,0,0,1-1.9.6l-1.086,1.86a2.952,2.952,0,0,1-1.721,5.346c-1.632,0-3.136-1.232-4.444-2.14a39.181,39.181,0,0,1-3.5-2.813,41.714,41.714,0,0,1-10.539-14.774c-1.333-3.174-1.9-6.857-4.3-9.473-.914-1-2.241.444-1.454,1.454a15.663,15.663,0,0,1,2.273,4.787c.571,1.689,1.168,3.359,1.9,4.99a43.9,43.9,0,0,0,12.7,16.323c2.59,2.038,6.038,4.914,9.524,3.321a5.141,5.141,0,0,0,.635-8.889c-1.143-.8-2.2,1.054-1.086,1.86a3.437,3.437,0,0,0,4.635-1.016c1.27-1.765.635-4.159-.444-5.841L179.9,451.5a6.717,6.717,0,0,0,1.765-11.041l-1.4,1.778c2.7,1.9,6.6-.064,7.5-3.009,1.1-3.556-2-7.028-5.314-7.771V433.6a4.648,4.648,0,0,0,2.432-6.349c-1.27-2.711-4.609-3.46-7.308-2.965-1.27.235-.921,2.152.292,2.165,3.06.044,4.6-3.581,3.117-6.025-1.8-2.978-5.536-2.971-8.489-2.044a1.054,1.054,0,0,0,.279,2.064,3.378,3.378,0,0,0,3.086-2.3,3.81,3.81,0,0,0-.889-4c-2.616-2.679-6.476-1.27-9.339.1-1.041.5-.26,1.9.736,1.74,2.146-.381,2.927-3.073,1.822-4.787-1.409-2.171-4.241-2.171-6.451-1.473a26.457,26.457,0,0,0-12.158,8.343c-.546.635.368,1.594.94.946Z" transform="translate(-46.017 -137.499)"/>
    <path id="Path_17" data-name="Path 17" d="M160.728,466.717c-.057-2.393,1.987-19.174-16-21.765a29.555,29.555,0,0,0-19.53,4.222,52.216,52.216,0,0,0-5.244,3.676c-18.05,14.368-5.543,52.386,18.139,56.253,14.825,2.425,19.879-11.86,21.9-23.86,1.029-6.07.889-12.336.737-18.527Z" transform="translate(-32.127 -150.419)" fill="#fff"/>
    <path id="Path_18" data-name="Path 18" d="M142.321,509.382a16.828,16.828,0,0,0,11.06-1.638,18.971,18.971,0,0,0,6.984-7.492,41.339,41.339,0,0,0,3.867-10.514,69.039,69.039,0,0,0,1.816-14.838c.064-3.448-.114-6.889-.051-10.33a30.586,30.586,0,0,0-.432-5.949,17.322,17.322,0,0,0-9.917-13.174,26.419,26.419,0,0,0-13.631-1.9,33.144,33.144,0,0,0-14.869,5.765c-1.143.775-2.248,1.606-3.327,2.457-.813.635.33,1.771,1.13,1.136a35.937,35.937,0,0,1,13.911-7.193,26.717,26.717,0,0,1,14.1.4,16.019,16.019,0,0,1,7.619,5.022,16.509,16.509,0,0,1,3.175,6.6,25.858,25.858,0,0,1,.635,5.886c0,2.165,0,4.324.038,6.489.14,8.889-.54,18.082-4.032,26.4a22.3,22.3,0,0,1-5.555,8.254,13.7,13.7,0,0,1-9.079,3.346,19.443,19.443,0,0,1-3.041-.241c-1.009-.159-1.441,1.384-.425,1.543Z" transform="translate(-36.57 -149.923)"/>
    <path id="Path_19" data-name="Path 19" d="M138.938,479.341a2.408,2.408,0,0,0,1.213.286,8.1,8.1,0,0,0,1.467,0c.819-.051,1.632-.171,2.457-.222a47.422,47.422,0,0,1,5.117,0,1.581,1.581,0,0,0,1.568-1.568,1.6,1.6,0,0,0-1.568-1.568,34.441,34.441,0,0,0-5.308.159,20.168,20.168,0,0,0-2.832.413,4.062,4.062,0,0,0-2.425,1.3.9.9,0,0,0,.311,1.187Z" transform="translate(-42.038 -161.932)" fill="#091010"/>
    <path id="Path_20" data-name="Path 20" d="M179.563,478.474c-.216-.8-1.34-1.232-2.044-1.46a12.6,12.6,0,0,0-2.54-.432,22.226,22.226,0,0,0-4.59-.063,1.568,1.568,0,0,0,0,3.136,28.245,28.245,0,0,1,4.749-.064c.775.057,1.536.19,2.311.2s2.419-.14,2.1-1.314Z" transform="translate(-53.102 -162.005)" fill="#091010"/>
    <path id="Path_21" data-name="Path 21" d="M148.275,485.495a.787.787,0,0,0-.375-.882,1.06,1.06,0,0,0-.889-.038,2.167,2.167,0,0,0-.394.171,2.28,2.28,0,0,0-.362.292,3.057,3.057,0,0,0-.464.565,2.192,2.192,0,0,0-.286.635,2.267,2.267,0,0,0-.038.991,2.032,2.032,0,0,0,.921,1.34,1.746,1.746,0,0,0,.749.248,2.03,2.03,0,0,0,.806-.038,1.893,1.893,0,0,0,.317-.114,1.516,1.516,0,0,0,.3-.152,2.255,2.255,0,0,0,.635-.635,1.968,1.968,0,0,0,.273-.94,2.311,2.311,0,0,0-.044-.514,1.979,1.979,0,0,0-.184-.5,1.9,1.9,0,0,0-1.651-1.035h-.114a2.473,2.473,0,0,0-.419.063,1.982,1.982,0,0,0-.381.152l-.114.057a1.816,1.816,0,0,0-.794,1.054,2.376,2.376,0,0,0-.057.419.635.635,0,0,0,0,.108,1.835,1.835,0,0,0,.1.521,1.906,1.906,0,0,0,.419.711,1.524,1.524,0,0,0,.711.413l.343.051a.951.951,0,0,0,.5-.114,1.194,1.194,0,0,0,.635-.527,1.429,1.429,0,0,0,.171-.635,1.4,1.4,0,0,0-.375-.908c-.108-.1-.222-.184-.337-.267l.26.2a.587.587,0,0,1-.089-.089l.2.26a.679.679,0,0,1-.083-.133l.133.311a1.362,1.362,0,0,1-.044-.152l.051.343a.47.47,0,0,1,0-.133l-.051.343a.735.735,0,0,1,.032-.127l-.127.3a.749.749,0,0,1,.07-.121l-.2.26.076-.083-.254.2a.634.634,0,0,1,.146-.082l-.3.127a.528.528,0,0,1,.171-.044l-.336.044h.165l-.33-.044a.8.8,0,0,1,.165.044l-.3-.127.127.076-.254-.19a.8.8,0,0,1,.127.127l-.2-.254a.814.814,0,0,1,.1.159l-.127-.292a1.069,1.069,0,0,1,.057.2l-.044-.33a.818.818,0,0,1,0,.216l.044-.324a.636.636,0,0,1-.051.184l.127-.292a.986.986,0,0,1-.1.178l.19-.248a1.014,1.014,0,0,1-.165.165l.248-.19a1.11,1.11,0,0,1-.222.127l.286-.121a1.151,1.151,0,0,1-.254.07l.317-.044a1.451,1.451,0,0,1-.235,0l.317.038a.705.705,0,0,1-.2-.057l.279.121a.9.9,0,0,1-.165-.1l.235.184a.834.834,0,0,1-.146-.152l.178.235a1.773,1.773,0,0,1-.121-.21l.114.273a1.674,1.674,0,0,1-.108-.387l.038.292a1.492,1.492,0,0,1,0-.336l-.038.279a1.906,1.906,0,0,1,.108-.4l-.1.241a2.63,2.63,0,0,1,.229-.413c.083-.121.127-.26.21-.375l-.127.165a.317.317,0,0,1,.089-.1l-.159.121.229-.184-.14.108h.032l-.159.064h-.343l-.108-.051a.635.635,0,0,0,.87-.349Z" transform="translate(-44.562 -164.949)" fill="#091010"/>
    <path id="Path_22" data-name="Path 22" d="M175.906,486.427a.775.775,0,0,0-.368-.876,1.035,1.035,0,0,0-.889-.038,2.716,2.716,0,0,0-.394.165,2.366,2.366,0,0,0-.368.3,3.512,3.512,0,0,0-.457.559,2.542,2.542,0,0,0-.292.635,2.4,2.4,0,0,0-.038,1,2.051,2.051,0,0,0,.927,1.333,1.759,1.759,0,0,0,.743.254,2.2,2.2,0,0,0,.813-.038,3.16,3.16,0,0,0,.317-.114,1.905,1.905,0,0,0,.3-.152,2.185,2.185,0,0,0,.635-.635,1.905,1.905,0,0,0,.279-.946,2.02,2.02,0,0,0-.051-.514,1.9,1.9,0,0,0-1.829-1.53h-.114a3.029,3.029,0,0,0-.419.057,2.9,2.9,0,0,0-.387.152.635.635,0,0,0-.108.064,1.746,1.746,0,0,0-.794,1.054,2.307,2.307,0,0,0-.064.419.553.553,0,0,0,0,.1,1.79,1.79,0,0,0,.089.521,1.985,1.985,0,0,0,.425.711,1.429,1.429,0,0,0,.711.419l.343.044a.945.945,0,0,0,.5-.108,1.269,1.269,0,0,0,.635-.527,1.542,1.542,0,0,0,.178-.635,1.009,1.009,0,0,0-.108-.5.99.99,0,0,0-.267-.413,3.518,3.518,0,0,0-.343-.267l.267.2a.636.636,0,0,1-.1-.089l.2.26a.713.713,0,0,1-.076-.133l.127.3a.533.533,0,0,1-.038-.152l.044.343a.844.844,0,0,1,0-.127l-.044.337a.924.924,0,0,1,.032-.127l-.127.3a.554.554,0,0,1,.07-.114l-.2.254.083-.076-.254.2a.813.813,0,0,1,.146-.089l-.3.127.165-.044-.336.051a.832.832,0,0,1,.178,0L175,488.3a.713.713,0,0,1,.165.051l-.3-.127a.518.518,0,0,1,.127.076l-.254-.2a.507.507,0,0,1,.127.133l-.19-.254a.783.783,0,0,1,.089.159l-.121-.3a1.134,1.134,0,0,1,.057.21l-.044-.33a1.22,1.22,0,0,1,0,.216l.045-.33a.881.881,0,0,1-.051.184l.127-.292a1.6,1.6,0,0,1-.1.178l.191-.248a.815.815,0,0,1-.165.165l.248-.19a1.028,1.028,0,0,1-.229.133l.286-.121a1.18,1.18,0,0,1-.248.064l.311-.038a.924.924,0,0,1-.229,0l.311.044a1.138,1.138,0,0,1-.2-.057l.279.121-.159-.1.235.184a1.62,1.62,0,0,1-.146-.152l.178.229a.858.858,0,0,1-.121-.21l.114.273a1.625,1.625,0,0,1-.108-.381l.038.292a1.5,1.5,0,0,1,0-.336l-.038.279a1.7,1.7,0,0,1,.114-.4l-.1.241a1.751,1.751,0,0,1,.229-.413c.083-.121.121-.26.2-.381l-.127.165.089-.089-.152.114.229-.178-.14.108-.159.064h-.311l-.114-.051a.6.6,0,0,0,.87-.356Z" transform="translate(-54.651 -165.291)" fill="#091010"/>
    <path id="Path_23" data-name="Path 23" d="M164.439,494.961c.044.978.057,1.955.076,2.933a7.766,7.766,0,0,0,.114,1.219,2.235,2.235,0,0,0,.743,1.27,1.327,1.327,0,0,1,.368,1.5c-.279.6-1.009.635-1.5,1.175-.952.99.565,2.508,1.511,1.511-.076.083.051-.044.1-.07l.267-.121a3.014,3.014,0,0,0,.54-.349,3.251,3.251,0,0,0,.876-1.029,3.3,3.3,0,0,0,.07-2.978,3.175,3.175,0,0,0-.819-1.06,5.816,5.816,0,0,0-.6-.444c-.044-.032-.222-.2-.184-.121s0-.209-.032-.241c-.19-1.048-.286-2.127-.394-3.174-.076-.711-1.168-.743-1.136,0Z" transform="translate(-51.318 -168.581)" fill="#091010"/>
    <path id="Path_24" data-name="Path 24" d="M144.664,494.328c1.2.121,2.4.216,3.6.311a.673.673,0,0,0,.667-.667.692.692,0,0,0-.667-.673c-1.2-.057-2.4-.108-3.6-.14a.591.591,0,0,0-.584.584.635.635,0,0,0,.584.584Z" transform="translate(-44.069 -168.113)" fill="#091010"/>
    <path id="Path_25" data-name="Path 25" d="M172.789,495.266a15.921,15.921,0,0,0,3.174-.584.635.635,0,0,0-.336-1.225,14.579,14.579,0,0,1-1.454.419c-.241.057-.483.108-.73.152l-.362.057-.171.032H172.8a.584.584,0,0,0-.565.571.578.578,0,0,0,.565.565Z" transform="translate(-54.347 -168.213)" fill="#091010"/>
    <g id="Group_20" data-name="Group 20" transform="translate(93.516 326.609)">
      <path id="Path_26" data-name="Path 26" d="M134.434,498.578a.584.584,0,1,0-.584-.584A.584.584,0,0,0,134.434,498.578Z" transform="translate(-133.85 -496.273)" fill="#accbcb"/>
      <path id="Path_27" data-name="Path 27" d="M137.981,497.523l.1-.1a.439.439,0,0,0,.127-.2.426.426,0,0,0,.051-.235.635.635,0,0,0-.178-.432l-.121-.1a.636.636,0,0,0-.311-.083h-.159a.565.565,0,0,0-.267.152l-.108.108a.457.457,0,0,0-.127.2.476.476,0,0,0-.051.235.508.508,0,0,0,.051.235.476.476,0,0,0,.127.19l.127.1a.578.578,0,0,0,.3.083h.159a.634.634,0,0,0,.273-.159Z" transform="translate(-134.978 -495.897)" fill="#accbcb"/>
      <path id="Path_28" data-name="Path 28" d="M136.769,500.89a.635.635,0,0,0,0-1.2.6.6,0,0,0,0,1.2Z" transform="translate(-134.718 -497.106)" fill="#accbcb"/>
      <path id="Path_29" data-name="Path 29" d="M181.286,496.756a.571.571,0,1,0-.511-.568.571.571,0,0,0,.511.568Z" transform="translate(-150.982 -495.62)" fill="#accbcb"/>
      <path id="Path_30" data-name="Path 30" d="M182.891,496.66v.1l.057.146a.438.438,0,0,0,.159.165.361.361,0,0,0,.133.083.508.508,0,0,0,.235.051h.165l.14-.063a.381.381,0,0,0,.171-.159.432.432,0,0,0,.114-.2v-.1a.635.635,0,0,0,0-.336.584.584,0,0,0-.159-.279l-.133-.1a.635.635,0,0,0-.317-.082.45.45,0,0,0-.241.051.5.5,0,0,0-.21.133.644.644,0,0,0-.159.616Z" transform="translate(-151.73 -495.714)" fill="#accbcb"/>
      <path id="Path_31" data-name="Path 31" d="M181.664,500.151a.794.794,0,1,0-.723-.79A.794.794,0,0,0,181.664,500.151Z" transform="translate(-151.043 -496.697)" fill="#accbcb"/>
    </g>
    <path id="Path_32" data-name="Path 32" d="M156.958,521.12l.108-.1-.578.152a.749.749,0,0,0,.6-.114l.216-.165a4.1,4.1,0,0,1,.552-.33l.133-.063c.127-.064-.038,0,.044,0l.3-.108.635-.2a12.867,12.867,0,0,1,1.27-.286l.635-.1h.038c-.171-.07-.178-.07,0,0s.159.057-.171-.121a.908.908,0,0,0,.952.165.933.933,0,0,0,.552-.825,1.13,1.13,0,0,0-.876-1.136,2.158,2.158,0,0,0-1.1.076c-.521.133-1.035.279-1.543.463a6.446,6.446,0,0,0-1.536.768,6.015,6.015,0,0,0-.7.578c-.279.286-.54.571-.444,1l.057-.463-.083.121a.571.571,0,0,0,.152.749.578.578,0,0,0,.762-.044Z" transform="translate(-48.401 -177.127)" fill="#091010"/>
    <path id="Path_33" data-name="Path 33" d="M142.132,433.775c-.19,2.482-1.771,4.635-3.467,6.463a37.942,37.942,0,0,1-13.657,9.39c-1.168.47-2.844.692-3.371-.451-.457-1,.457-2.057,1.27-2.775a23.143,23.143,0,0,1-10.952,8.216,1.378,1.378,0,0,1-.908.1.978.978,0,0,1-.483-1.206,2.845,2.845,0,0,1,.838-1.143,31.669,31.669,0,0,1-11.924,10.571c-1.162.59-2.54,1.111-3.727.552a3.077,3.077,0,0,1-1.467-3.3,8.019,8.019,0,0,1,1.721-3.422,10.5,10.5,0,0,1-5.3-2.463,6.711,6.711,0,0,1-2.248-5.276c.279-3.638,4-6.076,7.568-6.832-1.371.235-2.959.4-3.975-.546-1.187-1.1-.813-3.175.343-4.343a8.872,8.872,0,0,1,4.394-1.962c-1.365-.076-3.079-.419-3.378-1.752a2.806,2.806,0,0,1,.419-1.9c2.457-4.616,7.949-6.781,13.143-7.39a34.916,34.916,0,0,1,10.571.362,4.158,4.158,0,0,1-3.492-1.352,3.06,3.06,0,0,1,.19-3.39,5.9,5.9,0,0,1,2.927-2.006,13.983,13.983,0,0,1,9.981.565,25.079,25.079,0,0,1,8.2,6,1.93,1.93,0,0,1,.908-2.686,3.943,3.943,0,0,1,3.136.114,8.787,8.787,0,0,1,1.721,15.492" transform="translate(-23.76 -140.398)" fill="#091010"/>
    <path id="Path_34" data-name="Path 34" d="M141.1,433.276c-.33,2.5-2.1,4.59-3.809,6.349a37.02,37.02,0,0,1-5.619,4.73,39.483,39.483,0,0,1-6.349,3.536,5.409,5.409,0,0,1-2.857.762c-1.352-.241.146-1.727.6-2.127l-1.359-1.048a22.1,22.1,0,0,1-5.46,5.27,23.379,23.379,0,0,1-3.3,1.854c-.54.248-1.13.413-1.663.673-.216.1-.343.26-.3,0s.425-.565.635-.749l-1.39-1.073a31.962,31.962,0,0,1-9.143,8.806,26.6,26.6,0,0,1-2.724,1.524c-.838.406-2.063.9-2.9.235-1.759-1.391,0-3.975.921-5.251a.927.927,0,0,0-.546-1.352c-3.384-.635-7.5-3.111-6.844-7.162.527-3.213,3.975-5.009,6.857-5.644,1.156-.254.635-1.943-.483-1.752a4.734,4.734,0,0,1-2.724-.07,1.689,1.689,0,0,1-.711-2.14c.635-1.949,2.952-2.464,4.679-2.889a.916.916,0,0,0-.241-1.79c-.717-.044-2.1-.108-2.451-.9-.413-.933.99-2.584,1.556-3.225a13.822,13.822,0,0,1,5.422-3.676c5-1.962,10.755-2.032,15.981-1.067l.248-1.8a3.3,3.3,0,0,1-2.7-.9,2.383,2.383,0,0,1,.5-2.825c1.625-1.657,4.514-1.975,6.7-1.841,5.035.3,9.276,3.435,12.654,6.946a.921.921,0,0,0,1.435-1.111c-.483-.787.413-1.492,1.136-1.581a4.7,4.7,0,0,1,2.686.743,8.254,8.254,0,0,1,3.5,3.9,8.108,8.108,0,0,1-2.806,9.587c-.876.635-.057,2.07.851,1.454a9.771,9.771,0,0,0,4.152-10.127,9.9,9.9,0,0,0-2.857-4.971,7.987,7.987,0,0,0-5.4-2.419c-2.108.083-4.14,2.254-2.844,4.33l1.435-1.1c-3.346-3.473-7.454-6.533-12.33-7.3a13.5,13.5,0,0,0-7.079.635c-2.006.794-3.886,2.356-3.879,4.692,0,2.673,2.54,3.7,4.832,3.727,1,0,1.27-1.606.241-1.8a33.073,33.073,0,0,0-15.4.533,18.355,18.355,0,0,0-5.784,2.851,11.038,11.038,0,0,0-3.987,5.079,2.743,2.743,0,0,0,1.048,3.174,6.045,6.045,0,0,0,3.13.844l-.241-1.79c-2.7.673-5.816,1.828-6.108,5.028a3.346,3.346,0,0,0,1.606,3.276,6.368,6.368,0,0,0,4.222.3l-.483-1.752c-3.7.813-7.7,3.3-8.2,7.371-.6,4.863,3.911,8.146,8.184,8.965l-.552-1.352c-1.441,1.937-2.724,4.546-1.2,6.832,1.619,2.432,4.552,1.359,6.628.235a32.07,32.07,0,0,0,11.53-10.558c.559-.857-.692-1.784-1.39-1.079a3.067,3.067,0,0,0-1.143,2.133,1.778,1.778,0,0,0,1.073,1.651,3.384,3.384,0,0,0,2.425-.419,24.015,24.015,0,0,0,2.451-1.257,24.349,24.349,0,0,0,8.063-7.073c.635-.832-.635-1.663-1.359-1.048a4.2,4.2,0,0,0-1.657,2.743,2.216,2.216,0,0,0,1.384,2.121c1.9.768,4.165-.559,5.822-1.365a37.9,37.9,0,0,0,11.46-8.711c1.727-1.936,3.175-4.127,3.321-6.787.044-.724-1.009-.679-1.1,0Z" transform="translate(-23.268 -139.898)"/>
    <path id="Path_35" data-name="Path 35" d="M169.3,442.2c1.187,5.39,3.676,10.831,8.108,14.025a.94.94,0,0,0,1.467-.927c1.206,1.238,2.489,2.54,4.267,2.825a3.175,3.175,0,0,0,2.425-.508c1.479-1.073,1.225-2.927.489-4.3-.578-1.086-1.422-2.013-1.975-3.111,1.638.635,3.848,1.111,4.679-.743a2.743,2.743,0,0,0,.114-1.733,13.791,13.791,0,0,0-6.9-9.035,10.508,10.508,0,0,0-7.384-1.117,7.174,7.174,0,0,0-5.263,5.009" transform="translate(-53.277 -147.732)" fill="#091010"/>
    <path id="Path_36" data-name="Path 36" d="M168.187,441.739a26.774,26.774,0,0,0,4.3,10.578,15.873,15.873,0,0,0,3.848,3.936,1.784,1.784,0,0,0,2.787-1.81l-1.4.813a10.375,10.375,0,0,0,3.9,2.882,4.172,4.172,0,0,0,4.444-.908,3.93,3.93,0,0,0,.711-3.809c-.483-1.606-1.676-2.832-2.444-4.292l-1.054,1.34c1.9.711,4.489,1.13,5.657-.971a4.659,4.659,0,0,0,0-3.809,14.641,14.641,0,0,0-1.625-3.466c-2.857-4.444-8.628-7.835-13.968-6.146a8.069,8.069,0,0,0-5.524,5.619,1.01,1.01,0,0,0,1.949.533,6.349,6.349,0,0,1,5.079-4.4,10.366,10.366,0,0,1,7.873,2.273,12.869,12.869,0,0,1,4.355,6.108c.3.908.8,2.476-.444,2.908a4.648,4.648,0,0,1-2.851-.432c-.838-.3-1.409.7-1.054,1.365.806,1.5,3.409,3.911,2.2,5.79-.692,1.073-2.171.971-3.175.508a10.1,10.1,0,0,1-2.819-2.26.844.844,0,0,0-1.429.825c.051.2-.851-.457-.94-.527a16.773,16.773,0,0,1-1.511-1.416,19.156,19.156,0,0,1-2.584-3.466,30.758,30.758,0,0,1-3.175-8.044c-.184-.724-1.27-.413-1.111.3Z" transform="translate(-52.723 -147.111)"/>
    <path id="Path_37" data-name="Path 37" d="M115.876,424.65a10.565,10.565,0,0,1-5.771-5.562,5.6,5.6,0,0,1-.127-4.806,4.591,4.591,0,0,1,4.121-2.121,8.291,8.291,0,0,1,4.489,1.7,2.113,2.113,0,0,1-.317-3.054,3.333,3.333,0,0,1,3.175-.921,8.61,8.61,0,0,1,3.1,1.53,2.337,2.337,0,0,1-.267-3.416,4.317,4.317,0,0,1,3.575-1.175,7.8,7.8,0,0,1,6.406,4.482,2.381,2.381,0,0,1,.781-3.219,3.613,3.613,0,0,1,3.536,0,7.885,7.885,0,0,1,2.673,2.508,14.285,14.285,0,0,1,2.889,7.619,9.3,9.3,0,0,1-2.984,7.428c-3.409,2.927-8.793,2.54-12.222,5.435" transform="translate(-31.439 -136.58)" fill="#091010"/>
    <path id="Path_38" data-name="Path 38" d="M115.648,423.589c-2.9-1.27-5.809-4.273-5.867-7.619a3.308,3.308,0,0,1,2.762-3.384c1.816-.4,3.625.483,5.079,1.5.965.679,1.867-.9.921-1.575-1.086-.781.2-2.07,1.041-2.248,1.473-.3,2.844.635,3.987,1.435,1.035.724,2.013-.971.984-1.682-.743-.521-.337-1.721.248-2.171a3.93,3.93,0,0,1,3-.514,6.87,6.87,0,0,1,5.079,3.949l1.835-1.067a1.39,1.39,0,0,1,1.048-2.019,3.544,3.544,0,0,1,3.13,1.27,13.613,13.613,0,0,1,3.422,6.908,8.768,8.768,0,0,1-1.5,6.806c-1.441,1.867-3.727,2.622-5.9,3.257-2.6.749-5.206,1.416-7.232,3.321-.87.806.292,2.394,1.27,1.676,2.349-1.7,5.251-2.184,7.936-3.079,2.876-.959,5.46-2.54,6.819-5.365a11.9,11.9,0,0,0,.349-9.168,16.971,16.971,0,0,0-2.343-4.387,8.813,8.813,0,0,0-3.321-3,4.531,4.531,0,0,0-4.959.565,3.46,3.46,0,0,0-.635,4.267,1.061,1.061,0,1,0,1.835-1.067,8.751,8.751,0,0,0-8.254-4.959,4.534,4.534,0,0,0-3.911,2.356,3.257,3.257,0,0,0,1.035,4.089l.984-1.683c-1.9-1.333-4.546-2.54-6.762-1.06a3.111,3.111,0,0,0-.171,5.13l.921-1.575a8.365,8.365,0,0,0-6.349-1.67,4.92,4.92,0,0,0-3.994,4.216c-.5,4.3,3.276,8.19,6.984,9.581.6.216,1.029-.781.438-1.041Z" transform="translate(-30.925 -136.008)"/>
    <path id="Path_39" data-name="Path 39" d="M89.733,480.78a7.308,7.308,0,0,0-4.108,6.311,2.736,2.736,0,0,0,.337,1.555c.711,1.118,2.356,1.029,3.638.7a3.365,3.365,0,0,0-.152,4.044,2.565,2.565,0,0,0,3.809.19,3.473,3.473,0,0,0,5.441,4.171,1.27,1.27,0,0,0,1.5.419,2.869,2.869,0,0,0,1.27-1.111,11.308,11.308,0,0,0,1.9-6.7,22.253,22.253,0,0,0-1.39-6.9,14.817,14.817,0,0,0-3.346-5.911,6.47,6.47,0,0,0-6.267-1.835" transform="translate(-22.724 -161.657)"/>
    <path id="Path_40" data-name="Path 40" d="M89.063,479.549a7.619,7.619,0,0,0-4.806,6.019c-.2,1.4-.063,2.965,1.27,3.809a5.418,5.418,0,0,0,3.86.336l-1.048-1.8a4.352,4.352,0,0,0-.038,5.879,3.809,3.809,0,0,0,5.32,0l-1.936-1.543A4.7,4.7,0,0,0,99.05,497.9l-1.949-.248a2.54,2.54,0,0,0,2.819,1.022,4.979,4.979,0,0,0,2.54-2.368,13,13,0,0,0,1.638-6.984,24.527,24.527,0,0,0-1.689-7.7,14.2,14.2,0,0,0-3.765-6.063,7.032,7.032,0,0,0-7.359-1.536,1.086,1.086,0,0,0-.444,1.365,1.111,1.111,0,0,0,1.27.635c4.882-.8,7.276,4.343,8.463,8.152a16.9,16.9,0,0,1,.9,7.276,9.74,9.74,0,0,1-.94,3.117,6.851,6.851,0,0,1-.775,1.27c-.146.171-.343.279-.483.432s-.3-.248,0,.127a1.27,1.27,0,0,0-1.943-.248,2.26,2.26,0,0,1-3.543-2.641c.578-1.175-.927-2.54-1.9-1.473a1.352,1.352,0,0,1-1.968-.032,2.386,2.386,0,0,1,.1-2.8,1.092,1.092,0,0,0-1.213-1.587,3.006,3.006,0,0,1-2.3.044c-.749-.476-.476-1.9-.3-2.628a7.288,7.288,0,0,1,3.3-4.444c.527-.3.178-1.27-.425-1.016Z" transform="translate(-22.2 -160.953)"/>
    <path id="Path_41" data-name="Path 41" d="M122.146,492.582c.07-.038-.051,0-.057,0h.032a.769.769,0,0,1,.241,0H122.2a1.815,1.815,0,0,1,.349.1l-.159-.063a1.269,1.269,0,0,1,.3.171l-.133-.108a1.6,1.6,0,0,1,.229.235l-.108-.14a2.133,2.133,0,0,1,.254.438l-.07-.171a3.708,3.708,0,0,1,.235.813l-.032-.2a.591.591,0,0,1,0,.184v-.2a.923.923,0,0,1-.032.127l.076-.184-.038.07.121-.159-.038.038.159-.127h-.032l.19-.076h.394l.552.546a1.053,1.053,0,0,1-.07-.241v.21a1.435,1.435,0,0,1,0-.286v.216a1.331,1.331,0,0,1,.07-.273l-.127.171a1,1,0,0,0,.127-.451,2.006,2.006,0,0,0,0-.273v.184a.775.775,0,0,0-.1-.394.755.755,0,0,0-.286-.279.774.774,0,0,0-.787,0c-.679.381-.635,1.384-.311,1.987a.857.857,0,0,0,.959.375.94.94,0,0,0,.552-.419,1.225,1.225,0,0,0,.165-.717,2.424,2.424,0,0,0-.178-.635,4.176,4.176,0,0,0-.311-.635,2.3,2.3,0,0,0-.438-.546,1.969,1.969,0,0,0-.673-.406,1.5,1.5,0,0,0-1.524.279.552.552,0,0,0,.667.87Z" transform="translate(-35.76 -167.458)"/>
    <path id="Path_42" data-name="Path 42" d="M84.541,503.69l-6,17.974c-3.175,9.613-6.762,13.606-16.508,15.727-23.46,5.079-39.637,21.142-36.621,46.075,1.943,16.044,6.908,31.587,12.838,46.615,6.425,16.273,14.228,32.38,26.463,44.907s29.6,21,46.983,19c7.086-.813,13.873-3.3,20.412-6.133a186.353,186.353,0,0,0,64.011-46.069c2.622-2.914,5.225-6.038,6.279-9.816.324-1.162-1.1-2.927-1.5-1.79l3.714-4.444a40.5,40.5,0,0,0-9.232-14.076c-1.27-1.27-2.724-2.457-4.489-2.54s-3.682,1.448-3.257,3.175c-2.152-1.7-5.276-.832-7.854.1q-38.532,13.968-78.036,24.977-7.854-23.352-17.371-46.107" transform="translate(-0.612 -171.958)" fill="#fff"/>
    <path id="Path_43" data-name="Path 43" d="M83.3,503.173c-1.327,3.759-2.66,7.511-3.968,11.276-1.124,3.244-2.171,6.527-3.46,9.708-1.644,4.057-4.051,7.619-8.025,9.676a28.36,28.36,0,0,1-6.984,2.286,66.273,66.273,0,0,0-7.886,2.228,52.066,52.066,0,0,0-13.485,6.984,38.713,38.713,0,0,0-15.365,23.625,50.221,50.221,0,0,0-.1,16.768A156.449,156.449,0,0,0,28.8,607.615c2.082,7.193,4.584,14.266,7.308,21.238,2.482,6.349,5.143,12.7,8.19,18.8,5.949,11.974,13.523,23.491,23.79,32.221,9.79,8.317,22.006,14.216,34.952,15,13.892.844,27.155-5.219,39.244-11.428a188.746,188.746,0,0,0,33.51-21.974,186.317,186.317,0,0,0,14.844-13.555c2.324-2.368,4.616-4.787,6.781-7.3a23.735,23.735,0,0,0,5.079-8.324,3.073,3.073,0,0,0-.635-3.175,1.394,1.394,0,0,0-2.381.222c-.4.857.711,1.9,1.422,1.092l3.714-4.444a.908.908,0,0,0,.235-.882,41.986,41.986,0,0,0-8.654-13.631c-1.663-1.74-3.809-3.854-6.425-3.638a3.825,3.825,0,0,0-3.651,4.317l1.365-1.048c-1.936-1.435-4.444-1.225-6.635-.635-2.736.749-5.4,1.9-8.076,2.825q-8.692,3.079-17.434,6.013-17.3,5.809-34.793,11.028c-6.546,1.955-13.117,3.809-19.682,5.676l1.232.7q-6.19-18.152-13.377-35.948c-1.365-3.378-2.781-6.736-4.184-10.1-.394-.94-1.943-.527-1.549.425,4.927,11.784,9.435,23.758,13.65,35.815q1.809,5.162,3.53,10.343a1.016,1.016,0,0,0,1.232.7c22.971-6.349,45.713-13.612,68.2-21.53q4.743-1.663,9.473-3.384c2.33-.844,5.257-1.975,7.486-.324.717.527,1.492-.343,1.365-1.048-.159-.864.635-1.562,1.359-1.841a3.269,3.269,0,0,1,2.838.508,20,20,0,0,1,4.5,4.349,39.5,39.5,0,0,1,6.514,10.959l.235-.883-3.714,4.444,1.422,1.092-.514.076.1.114c0,.089.165.267.19.349a1.073,1.073,0,0,1,.032.7,9.523,9.523,0,0,1-.889,2.279,23.055,23.055,0,0,1-2.622,4.07c-2.019,2.54-4.3,4.927-6.552,7.27a185.766,185.766,0,0,1-14.095,13.193A184.686,184.686,0,0,1,144.594,680.1a167.038,167.038,0,0,1-17.968,8.343c-6.425,2.508-13.143,4.381-20.076,4.444-12.552.152-24.666-5-34.494-12.565-10.273-7.892-17.974-18.723-24.025-30.114A230.857,230.857,0,0,1,32.45,612.211a173.741,173.741,0,0,1-5.333-20.857c-1.1-5.911-2-11.943-1.441-17.974a36.189,36.189,0,0,1,12.317-24.126,47.193,47.193,0,0,1,12.177-7.568,57.757,57.757,0,0,1,7.155-2.539c2.54-.73,5.079-1.175,7.574-1.962A18.5,18.5,0,0,0,75,530.067c3.175-4.7,4.444-10.565,6.2-15.873,1.156-3.543,2.241-7.1,3.359-10.66.254-.806-.978-1.124-1.27-.343Z" transform="translate(0 -171.612)"/>
    <path id="Path_44" data-name="Path 44" d="M139.955,679.458q37.085-10.343,73.37-23.314a96.347,96.347,0,0,0-7.136-17.263c-3.943-7.048-9.524-13.409-16.85-16.87-10.857-5.143-24.126-3.073-34.52,2.959s-18.317,15.536-25.041,25.5l-.057.635Q135.142,665.172,139.955,679.458Z" transform="translate(-38.826 -214.09)" fill="#091010"/>
    <path id="Path_45" data-name="Path 45" d="M128.549,651.7a4.774,4.774,0,0,0,.527,2.311q.724,1.9,1.435,3.771,1.448,3.854,2.857,7.727,2.781,7.663,5.384,15.4a.819.819,0,0,0,.984.559q28.869-8.057,57.243-17.7,8.082-2.743,16.127-5.612a.806.806,0,0,0,.559-.984c-3.562-10.87-8.057-21.974-16.895-29.656a33.757,33.757,0,0,0-7.473-4.959c-.927-.438-1.74.94-.813,1.384,9.835,4.711,16.1,14.228,20.139,24.025,1.3,3.175,2.419,6.387,3.479,9.632l.559-.984Q184.446,666.671,155.7,675.2q-8.19,2.432-16.412,4.724l.984.559q-2.54-7.581-5.276-15.1-1.352-3.727-2.743-7.435-.711-1.9-1.435-3.809a16.953,16.953,0,0,1-.635-1.74,1.962,1.962,0,0,1,0-.724c.1-1.029-1.5-1.022-1.6,0Z" transform="translate(-38.398 -215.322)"/>
    <path id="Path_46" data-name="Path 46" d="M158.584,546.876l.051.051a.527.527,0,0,0,.533.14.749.749,0,0,0,.476-1.029c-.273-.521-.921-.419-1.321-.133a5.554,5.554,0,0,0-1.3,1.727,20.328,20.328,0,0,0-1,2.044,35.25,35.25,0,0,0-2.762,9.009c-.152,1.029,1.378,1.511,1.613.444a59.113,59.113,0,0,1,1.7-6.533c.356-1.041.743-2.082,1.194-3.086.216-.482.444-.959.7-1.422a5.266,5.266,0,0,1,.876-1.409l-.419.171h.165l-.413-.171.063.063-.165-.406.171-.267h.552l-.057-.038c-.521-.349-1.092.426-.635.851Z" transform="translate(-47.418 -187.284)"/>
    <path id="Path_47" data-name="Path 47" d="M162.063,482.1c13.822-4.038,27.936-7.27,41.389-12.438,3.771-1.448,7.492-3.048,11.1-4.857a.87.87,0,0,0,.4-.978c-2.47-6.546-3.962-13.416-6.444-19.961-3.092-8.139-6.19-16.273-9.384-24.368q-2.356-5.981-4.787-11.943a40.026,40.026,0,0,0-5.435-10.057,14.193,14.193,0,0,1-2.9-4.508c-.559-1.86-.152-3.809-.26-5.746a8.255,8.255,0,0,0-.476-2.476,27.207,27.207,0,0,0-1.27-2.406,3.847,3.847,0,0,1,.857-4.381,19.084,19.084,0,0,1,4.755-3.587c1.936-1.168,3.911-2.273,5.943-3.276,1.867-.921,4.2-1.9,6.311-1.238,1.549.5,3.022,2.082,2.54,3.809a.946.946,0,0,0,1.156,1.156c2.54-.578,4.508,1.771,5.752,3.644,1.708,2.571,3.016,5.441,4.508,8.146q4.94,8.933,10.343,17.606c6.857,11.009,14.743,21.447,20.66,33.015,5.625,11.009,9.435,23.688,7.447,36.139a38.589,38.589,0,0,1-6.6,16.146,59.97,59.97,0,0,1-11.574,11.943,157.27,157.27,0,0,1-13.968,9.771c-5.327,3.416-10.793,6.787-16.806,8.844a39.334,39.334,0,0,1-4.444,1.27c-1.117.241-.635,1.949.47,1.708,6.444-1.39,12.3-4.368,17.9-7.778,5.168-3.175,10.273-6.444,15.117-10.057,9.365-6.984,17.86-15.72,20.952-27.3,3.378-12.533.546-25.885-4.692-37.46-5.511-12.19-13.593-22.964-20.774-34.183q-5.714-8.927-10.978-18.114c-1.708-3-3.333-6.038-5.009-9.06-1.27-2.229-2.889-4.66-5.3-5.746a5.441,5.441,0,0,0-3.543-.343l1.156,1.156c1.029-3.575-2.6-6.413-5.879-6.349a13.715,13.715,0,0,0-6.1,1.9c-1.9.971-3.809,2.032-5.676,3.174-2.838,1.721-6.628,4.057-6.8,7.784-.089,2.063,1.454,3.384,1.956,5.251s.038,4.032.254,6.019c.432,3.968,3.809,6.571,5.714,9.854a92.745,92.745,0,0,1,5.314,12.063c3.441,8.559,6.749,17.174,10.031,25.8,1.594,4.184,3.175,8.349,4.444,12.641,1.206,4.019,2.286,8.1,3.771,12.032l.394-.984c-12.774,6.387-26.552,10.114-40.209,14.082-3.93,1.136-7.828,2.343-11.7,3.651-.635.222-.394,1.27.292,1.06Z" transform="translate(-50.37 -122.359)" fill="#091010"/>
    <path id="Path_48" data-name="Path 48" d="M87.421,550.574c-.311,6.4,3.917,12.146,8.812,15.822a41.506,41.506,0,0,0,8.692,4.844,45.5,45.5,0,0,0,9.885,3.016,30.521,30.521,0,0,0,18.5-2.108A21.634,21.634,0,0,0,144.7,559.9c1.981-5.917.984-12.857-3.314-17.517-.806-.876-2.114.438-1.308,1.314a15.623,15.623,0,0,1,3.27,14.152,19.18,19.18,0,0,1-9.479,11.924c-10.736,6.07-24.457,2.889-34.431-3.282-5.771-3.562-10.26-8.971-10.793-15.93a.635.635,0,0,0-1.219,0Z" transform="translate(-23.377 -185.979)"/>
    <path id="Path_49" data-name="Path 49" d="M287.437,864.292c-2.794-1.613-6.076-2.165-8.933-3.657-8.2-4.273-10.692-14.6-12.381-23.7q-8.984-48.551-20.2-96.664a186.307,186.307,0,0,1-51.631,33.771,264.691,264.691,0,0,0,22.26,74.919c2.641,5.644,5.524,11.32,6.393,17.491.324,2.3.375,4.679,1.168,6.87,2.8,7.689,12.762,9.333,20.952,9.739,14.762.724,30.691,1.149,42.951-7.1a8.267,8.267,0,0,0,3.416-3.7C292.516,869.207,290.231,865.9,287.437,864.292Z" transform="translate(-62.401 -258.331)" fill="#091010"/>
    <path id="Path_50" data-name="Path 50" d="M287.4,863.142c-3.524-1.981-7.67-2.5-10.971-4.921a19.867,19.867,0,0,1-5.993-7.784,47.873,47.873,0,0,1-3.143-9.968c-.914-4.159-1.606-8.368-2.4-12.552q-5.378-28.425-11.53-56.71-3.435-15.835-7.111-31.612a.806.806,0,0,0-1.34-.349,186.469,186.469,0,0,1-39.186,27.733q-6.019,3.174-12.26,5.911a.806.806,0,0,0-.368.908,266.227,266.227,0,0,0,8.984,40.38q3.009,9.9,6.819,19.542c2.54,6.381,5.352,12.6,8.254,18.819a63.012,63.012,0,0,1,3.7,9.441,32.317,32.317,0,0,1,1.016,5.143,32.563,32.563,0,0,0,.749,4.959c1.308,4.863,5.422,7.835,10,9.371,4.952,1.657,10.247,1.86,15.416,2.083a124.868,124.868,0,0,0,18.749-.311,50.167,50.167,0,0,0,17.193-4.717c2.54-1.27,5.447-2.8,7.1-5.162s1.079-5.3-.565-7.473a10.676,10.676,0,0,0-3.086-2.73.8.8,0,1,0-.813,1.384c2.171,1.27,4.444,3.867,3.759,6.59a6.2,6.2,0,0,1-2.584,3.244,30.965,30.965,0,0,1-3.708,2.286,46.547,46.547,0,0,1-16.508,4.882,114.484,114.484,0,0,1-17.949.464c-5.079-.184-10.235-.3-15.155-1.657-4.394-1.206-8.755-3.644-10.159-8.254a26.2,26.2,0,0,1-.8-4.806,35.555,35.555,0,0,0-.825-4.749,54.369,54.369,0,0,0-3.276-8.952c-2.724-6.076-5.613-12.063-8.108-18.228s-4.686-12.254-6.679-18.5a265.745,265.745,0,0,1-9.2-38.532q-.4-2.47-.749-4.933l-.368.9a187.347,187.347,0,0,0,41.453-25.034q5.333-4.241,10.336-8.889L244.749,740q6.628,28.494,12.5,57.142,2.933,14.323,5.67,28.7c.851,4.483,1.632,8.99,2.54,13.466A58.455,58.455,0,0,0,268.3,849.39a23.606,23.606,0,0,0,6.184,9.263,18.412,18.412,0,0,0,5.282,3.111,53.362,53.362,0,0,1,6.857,2.73C287.485,865.028,288.291,863.644,287.4,863.142Z" transform="translate(-61.953 -257.873)" fill="#18c4ff"/>
    <path id="Path_51" data-name="Path 51" d="M287.4,863.142c-3.524-1.981-7.67-2.5-10.971-4.921a19.867,19.867,0,0,1-5.993-7.784,47.873,47.873,0,0,1-3.143-9.968c-.914-4.159-1.606-8.368-2.4-12.552q-5.378-28.425-11.53-56.71-3.435-15.835-7.111-31.612a.806.806,0,0,0-1.34-.349,186.469,186.469,0,0,1-39.186,27.733q-6.019,3.174-12.26,5.911a.806.806,0,0,0-.368.908,266.227,266.227,0,0,0,8.984,40.38q3.009,9.9,6.819,19.542c2.54,6.381,5.352,12.6,8.254,18.819a63.012,63.012,0,0,1,3.7,9.441,32.317,32.317,0,0,1,1.016,5.143,32.563,32.563,0,0,0,.749,4.959c1.308,4.863,5.422,7.835,10,9.371,4.952,1.657,10.247,1.86,15.416,2.083a124.868,124.868,0,0,0,18.749-.311,50.167,50.167,0,0,0,17.193-4.717c2.54-1.27,5.447-2.8,7.1-5.162s1.079-5.3-.565-7.473a10.676,10.676,0,0,0-3.086-2.73.8.8,0,1,0-.813,1.384c2.171,1.27,4.444,3.867,3.759,6.59a6.2,6.2,0,0,1-2.584,3.244,30.965,30.965,0,0,1-3.708,2.286,46.547,46.547,0,0,1-16.508,4.882,114.484,114.484,0,0,1-17.949.464c-5.079-.184-10.235-.3-15.155-1.657-4.394-1.206-8.755-3.644-10.159-8.254a26.2,26.2,0,0,1-.8-4.806,35.555,35.555,0,0,0-.825-4.749,54.369,54.369,0,0,0-3.276-8.952c-2.724-6.076-5.613-12.063-8.108-18.228s-4.686-12.254-6.679-18.5a265.745,265.745,0,0,1-9.2-38.532q-.4-2.47-.749-4.933l-.368.9a187.347,187.347,0,0,0,41.453-25.034q5.333-4.241,10.336-8.889L244.749,740q6.628,28.494,12.5,57.142,2.933,14.323,5.67,28.7c.851,4.483,1.632,8.99,2.54,13.466A58.455,58.455,0,0,0,268.3,849.39a23.606,23.606,0,0,0,6.184,9.263,18.412,18.412,0,0,0,5.282,3.111,53.362,53.362,0,0,1,6.857,2.73C287.485,865.028,288.291,863.644,287.4,863.142Z" transform="translate(-61.953 -257.873)"/>
    <path id="Path_52" data-name="Path 52" d="M287.4,863.142c-3.524-1.981-7.67-2.5-10.971-4.921a19.867,19.867,0,0,1-5.993-7.784,47.873,47.873,0,0,1-3.143-9.968c-.914-4.159-1.606-8.368-2.4-12.552q-5.378-28.425-11.53-56.71-3.435-15.835-7.111-31.612a.806.806,0,0,0-1.34-.349,186.469,186.469,0,0,1-39.186,27.733q-6.019,3.174-12.26,5.911a.806.806,0,0,0-.368.908,266.227,266.227,0,0,0,8.984,40.38q3.009,9.9,6.819,19.542c2.54,6.381,5.352,12.6,8.254,18.819a63.012,63.012,0,0,1,3.7,9.441,32.317,32.317,0,0,1,1.016,5.143,32.563,32.563,0,0,0,.749,4.959c1.308,4.863,5.422,7.835,10,9.371,4.952,1.657,10.247,1.86,15.416,2.083a124.868,124.868,0,0,0,18.749-.311,50.167,50.167,0,0,0,17.193-4.717c2.54-1.27,5.447-2.8,7.1-5.162s1.079-5.3-.565-7.473a10.676,10.676,0,0,0-3.086-2.73.8.8,0,1,0-.813,1.384c2.171,1.27,4.444,3.867,3.759,6.59a6.2,6.2,0,0,1-2.584,3.244,30.965,30.965,0,0,1-3.708,2.286,46.547,46.547,0,0,1-16.508,4.882,114.484,114.484,0,0,1-17.949.464c-5.079-.184-10.235-.3-15.155-1.657-4.394-1.206-8.755-3.644-10.159-8.254a26.2,26.2,0,0,1-.8-4.806,35.555,35.555,0,0,0-.825-4.749,54.369,54.369,0,0,0-3.276-8.952c-2.724-6.076-5.613-12.063-8.108-18.228s-4.686-12.254-6.679-18.5a265.745,265.745,0,0,1-9.2-38.532q-.4-2.47-.749-4.933l-.368.9a187.347,187.347,0,0,0,41.453-25.034q5.333-4.241,10.336-8.889L244.749,740q6.628,28.494,12.5,57.142,2.933,14.323,5.67,28.7c.851,4.483,1.632,8.99,2.54,13.466A58.455,58.455,0,0,0,268.3,849.39a23.606,23.606,0,0,0,6.184,9.263,18.412,18.412,0,0,0,5.282,3.111,53.362,53.362,0,0,1,6.857,2.73C287.485,865.028,288.291,863.644,287.4,863.142Z" transform="translate(-61.953 -257.873)"/>
    <path id="Path_53" data-name="Path 53" d="M153.735,785.4c-6.54,2.838-13.333,5.321-20.412,6.133-17.377,1.994-34.748-6.5-46.983-19-.546-.552-1.067-1.117-1.587-1.689-1.384,15.4,1.156,31.231,8.508,44.786,8.539,15.746,23.872,28.069,41.5,31.256a75.142,75.142,0,0,0,17.263.813,34.02,34.02,0,0,0,10.571-1.835,22.506,22.506,0,0,0,6.228-3.733,265.391,265.391,0,0,1-14.666-56.919Z" transform="translate(-22.277 -269.492)" fill="#091010"/>
    <path id="Path_54" data-name="Path 54" d="M151.783,848.051a38.493,38.493,0,0,0,9.524-1.441,23.583,23.583,0,0,0,7.841-4.375.781.781,0,0,0,.21-.781,266.077,266.077,0,0,1-12.539-44.177q-1.219-6.349-2.127-12.749c-.083-.559-.768-.635-1.181-.476-9.371,4.222-19.4,7.257-29.777,6.311-9.428-.857-18.444-4.584-26.26-9.835A70.467,70.467,0,0,1,85.08,769.856c-.7-.756-1.835.375-1.136,1.13a69.013,69.013,0,0,0,23.98,17.035,50.421,50.421,0,0,0,28.837,3.333,79.24,79.24,0,0,0,17.561-5.873L153.142,785a266.18,266.18,0,0,0,10.374,44.736q2,6.152,4.3,12.19l.2-.781a21.466,21.466,0,0,1-7.384,4.038,37.27,37.27,0,0,1-8.851,1.27c-1.029.057-1.035,1.657,0,1.606Z" transform="translate(-22.034 -269.042)"/>
    <path id="Path_55" data-name="Path 55" d="M170.44,689.8a27.745,27.745,0,0,0,1.27,10.47.736.736,0,0,0,1.416-.387,42.3,42.3,0,0,1-1.536-10.082.584.584,0,0,0-1.168,0Z" transform="translate(-53.668 -239.693)"/>
    <path id="Path_56" data-name="Path 56" d="M286.4,661.458a44.192,44.192,0,0,1,6.013-10.076c2.489-2.882,6.26-5.663,10.3-4.9.927.178,1.333-1.232.394-1.429-4.381-.933-8.5,1.632-11.371,4.736a33.6,33.6,0,0,0-6.349,11.232c-.222.59.743,1,1.022.432Z" transform="translate(-95.645 -223.499)"/>
    <path id="Path_57" data-name="Path 57" d="M316.619,651.663a19.925,19.925,0,0,1,5.5-2.438,4.711,4.711,0,0,1,3,.152c1.054.368,2.076.857,3.143,1.187a.768.768,0,0,0,.591-1.4,15.87,15.87,0,0,0-3.39-1.448,6.089,6.089,0,0,0-3.562-.14,15.454,15.454,0,0,0-5.943,3.219c-.476.406.146,1.2.667.87Z" transform="translate(-106.757 -224.415)"/>
    <path id="Path_58" data-name="Path 58" d="M331.455,659.63a2.413,2.413,0,0,1,2.032-.317,9.764,9.764,0,0,1,1.34.317c.432.153.8.387,1.27.534a.724.724,0,0,0,.7-1.2,3.843,3.843,0,0,0-1.6-.838,5.5,5.5,0,0,0-1.7-.286,3.672,3.672,0,0,0-2.851.984.571.571,0,0,0,.806.806Z" transform="translate(-112.133 -228.237)"/>
    <path id="Path_59" data-name="Path 59" d="M336.367,669.952a1.713,1.713,0,0,1,.235-.133l.082-.038h.076a3.055,3.055,0,0,1,.527-.133c-.057,0-.083,0,0,0h.819a3.412,3.412,0,0,1,.5.127l.127.044c.083,0-.114-.057,0,0l.241.121.229.146.121.1c.14.121.26.254.394.381a.724.724,0,0,0,1.136-.876,3.409,3.409,0,0,0-2.54-1.422,3.537,3.537,0,0,0-2.609.794.565.565,0,0,0-.038.749.571.571,0,0,0,.73.146Z" transform="translate(-113.972 -232.038)"/>
    <path id="Path_60" data-name="Path 60" d="M329.109,679.148c3.022.343,2.762,4.546,1.746,6.521a4.267,4.267,0,0,1-2.59,2.349c-1.27.248-1.632-1.422-1.841-2.336a.768.768,0,0,0-1.384-.178c-.724,1.6-2.355,2.33-3.968,2.762a20.509,20.509,0,0,1-6.59.413.686.686,0,0,0-.178,1.34,14.354,14.354,0,0,0,7.524-.3,6.862,6.862,0,0,0,4.521-3.454l-1.384-.178c.336,1.448,1.016,3.232,2.717,3.435,1.835.222,3.524-1.416,4.349-2.9a7.784,7.784,0,0,0,.832-5.416A3.883,3.883,0,0,0,329.109,678a.578.578,0,0,0,0,1.149Z" transform="translate(-106.041 -235.596)"/>
    <path id="Path_61" data-name="Path 61" d="M178.066,331.2c-2.14.108-3.651,1.9-4.228,3.86a7.149,7.149,0,0,0,.844,6.013.749.749,0,0,0,1.27-.755,6.349,6.349,0,0,1-.756-4.59,5.835,5.835,0,0,1,.946-2.127,3.175,3.175,0,0,1,1.9-1.321c.673-.083.717-1.117,0-1.079Z" transform="translate(-54.818 -108.982)"/>
    <path id="Path_62" data-name="Path 62" d="M186.6,326.78a7.662,7.662,0,0,0-1.27,2.229,9.752,9.752,0,0,0-.667,2.425c-.2,1.435-.1,3.028,1.194,3.924.794.546,1.562-.762.762-1.27s-.635-1.9-.508-2.7a12.535,12.535,0,0,1,.5-1.994c.235-.667.59-1.27.863-1.9a.559.559,0,0,0-.876-.679Z" transform="translate(-58.856 -107.318)"/>
    <path id="Path_63" data-name="Path 63" d="M199.182,322.369a5.917,5.917,0,0,0-2.762,4.387,17.342,17.342,0,0,0-.159,3.175,1.778,1.778,0,0,0,.457,1.27.978.978,0,0,0,1.39,0c.584-.571-.2-1.682-.9-1.168h.451c.292.051.089.2.108,0a3.237,3.237,0,0,0,0-.5c0-.355-.038-.7-.038-1.06a9.606,9.606,0,0,1,.2-2.26,4.851,4.851,0,0,1,1.829-2.933.552.552,0,0,0-.559-.952Z" transform="translate(-63.115 -105.72)"/>
    <path id="Path_64" data-name="Path 64" d="M209.5,323.651a2.451,2.451,0,0,1,3-.47,5.622,5.622,0,0,1,2.254,2.775,35.48,35.48,0,0,1,2.635,8.3,38.051,38.051,0,0,1,.717,8.654,36.975,36.975,0,0,1-.368,4.349c-.216,1.454-.692,2.9-.819,4.355a.883.883,0,0,0,1.632.445,15.2,15.2,0,0,0,.9-3.752q.324-1.994.451-4a39.824,39.824,0,0,0-.279-7.892,37.3,37.3,0,0,0-1.8-7.619c-.775-2.184-1.638-4.775-3.5-6.286-1.676-1.359-4.444-1.543-5.714.489-.324.527.47,1.175.883.679Z" transform="translate(-67.6 -105.433)"/>
    <path id="Path_65" data-name="Path 65" d="M194.079,342.519a83.654,83.654,0,0,1,22.584-8.508,4.483,4.483,0,0,1,2.044-.152,4.261,4.261,0,0,1,2.089,1.5,22.533,22.533,0,0,1,5.225,11.016,4.317,4.317,0,0,1-.26,2.889c-.857,1.454-3.079,1.517-4.482.578a9.391,9.391,0,0,1-2.9-4.076l-1.009-2.159a1.1,1.1,0,0,0-1.575-.768c-7.511,1.956-14.381,5.974-21.942,7.714a6.857,6.857,0,0,0,.229-8.038l6.057-2.857" transform="translate(-62.24 -109.933)" fill="#accbcb"/>
    <path id="Path_66" data-name="Path 66" d="M193.862,342.5a81.9,81.9,0,0,1,15.466-6.349c2.33-.686,4.692-1.27,7.066-1.79a2.838,2.838,0,0,1,1.956,0,4.928,4.928,0,0,1,1.308,1.206,20.558,20.558,0,0,1,2.184,3.124,22.222,22.222,0,0,1,2.616,7.1c.165.933.381,2.279-.6,2.832a2.578,2.578,0,0,1-2.438-.133c-2.1-1.225-2.749-4.171-3.809-6.159-.635-1.162-1.663-1.27-2.851-.946-1.346.356-2.667.781-3.975,1.27-5.917,2.1-11.555,4.952-17.688,6.4l1.086,1.409a7.809,7.809,0,0,0,.21-8.99l-.336,1.27,6.044-2.876c1.067-.508.133-2.082-.927-1.581l-6.063,2.844a.933.933,0,0,0-.336,1.27,5.962,5.962,0,0,1-.1,6.889.971.971,0,0,0,.933,1.606c5.9-1.371,11.346-4.089,17.009-6.146,1.441-.527,2.9-1.009,4.374-1.416.171-.044.667-.286.813-.2s.337.635.413.781l.946,2.165c1.01,2.146,2.425,4.444,4.978,4.819a3.74,3.74,0,0,0,4.5-3.917,19.466,19.466,0,0,0-2.279-7.886,22.612,22.612,0,0,0-2.235-3.555,9.955,9.955,0,0,0-2.7-2.755c-1.27-.743-2.66-.464-4.019-.121s-2.54.635-3.809,1.029a81.933,81.933,0,0,0-18.33,7.765.635.635,0,0,0,.6,1.041Z" transform="translate(-61.719 -109.391)" fill="#accbcb"/>
    <path id="Path_67" data-name="Path 67" d="M206.539,334.8a1.727,1.727,0,0,0,.711.851,2.007,2.007,0,0,0,.99.279,1.828,1.828,0,0,0,1.721-.959.743.743,0,0,0,.07-.508.635.635,0,0,0-.889-.425.705.705,0,0,0-.381.425c.1-.235,0-.038,0,0s0-.038.044-.057a.641.641,0,0,0-.063.07c-.044.051-.184.14,0,0a1.04,1.04,0,0,1-.14.089l-.063.032c-.121.057.108-.038.057,0l-.152.044h-.292a.425.425,0,0,0-.1,0l-.14-.038c-.051,0-.146-.083.038,0h-.063l-.146-.089c-.076-.051.121.1.051.038a.38.38,0,0,1-.051-.051.488.488,0,0,1-.057-.057c-.083-.089.076.114,0,0a1.086,1.086,0,0,1-.083-.146.6.6,0,0,0-1.086.457Z" transform="translate(-66.86 -109.995)"/>
    <g id="Group_21" data-name="Group 21" transform="translate(40.693 253.299)">
      <path id="Path_68" data-name="Path 68" d="M74.891,565.613c-5.219,2.54-10.457,5.162-14.8,9.066a27.5,27.5,0,0,0-8.311,13.968c-2.711,10.946-.057,22.59,2.889,33.2a164.6,164.6,0,0,0,12,31.11,117.19,117.19,0,0,0,18.768,27,94.564,94.564,0,0,0,12.152,10.825,47.706,47.706,0,0,0,7.232,4.762c2.419,1.181,5.3,1.562,7.486-.3a4.2,4.2,0,0,0,1.5-2.946.819.819,0,0,0-1.606-.222,4.152,4.152,0,0,0,1.638,4.209,7.333,7.333,0,0,0,5.079,1.143,35.916,35.916,0,0,0,11.5-3.086c3.651-1.555,7.168-3.409,10.7-5.194,3.441-1.733,6.882-3.466,10.3-5.238,13.663-7.1,27.117-14.838,38.983-24.723q2.54-2.1,4.927-4.317c1.5-1.4,2.9-2.927,4.444-4.292a3.763,3.763,0,0,1,1.27-.8,3.482,3.482,0,0,1,1.556,0,2.223,2.223,0,0,0,2.33-.781c.711-1.219-.279-3.073-1.765-2.343-1,.489-.121,1.987.876,1.492l-.635-.171a.057.057,0,0,1,0,.038.2.2,0,0,1,0,.121,4.607,4.607,0,0,1-1.01-.083,3.955,3.955,0,0,0-2.267.241c-1.479.635-2.578,2.108-3.708,3.213-2.5,2.451-5.117,4.787-7.822,6.984a161.16,161.16,0,0,1-16.939,12.063c-11.9,7.466-24.495,13.86-37.11,20.012A55.62,55.62,0,0,1,123,695.013a19.38,19.38,0,0,1-5.847.673c-1.644-.133-3.879-1.27-3.416-3.27l-1.606-.216a2.977,2.977,0,0,1-2.038,2.381,5.326,5.326,0,0,1-3.924-.267,34.6,34.6,0,0,1-7.035-4.444,89.752,89.752,0,0,1-11.86-10.362,113.651,113.651,0,0,1-18.209-25.358,158.1,158.1,0,0,1-11.987-29.644c-3.016-10.159-5.854-21.041-4.5-31.707a27.23,27.23,0,0,1,5.981-14.4c3.6-4.279,8.419-7.143,13.257-9.8,1.213-.667,2.438-1.314,3.663-1.962.679-.355.083-1.346-.6-1.022Z" transform="translate(-50.652 -447.841)" fill="#accbcb"/>
      <path id="Path_69" data-name="Path 69" d="M280.905,680.284a56.929,56.929,0,0,1,10.927,14.152c.413.755,1.568.083,1.156-.673a54.973,54.973,0,0,0-11.314-14.247C281.159,679.053,280.4,679.8,280.905,680.284Z" transform="translate(-134.656 -489.396)" fill="#accbcb"/>
      <path id="Path_70" data-name="Path 70" d="M178.109,490.312a181.308,181.308,0,0,0,43.7-13.663c1.657-.756,3.517-1.4,4.749-2.813.94-1.079,1.39-2.54.311-3.67l-1.022,1.016a4.847,4.847,0,0,0,6.228-.3c2.387-1.9,2.59-5.117,1.943-7.917a48.911,48.911,0,0,0-3.917-9.714c-1.543-3.213-3.175-6.349-4.743-9.581a138.415,138.415,0,0,1-7.422-19.346c-2.019-6.5-3.86-13.066-6.2-19.46a98.559,98.559,0,0,0-4.381-10.292c-1.27-2.508-3.244-6.3-6.66-5.492l.882.673a4.356,4.356,0,0,1,1.219-3.041c.635-.635-.368-1.644-.99-.99a5.759,5.759,0,0,0-1.619,4.032.7.7,0,0,0,.883.673c2.749-.635,4.444,3.467,5.346,5.346a92.942,92.942,0,0,1,3.752,8.654c2.178,5.8,3.924,11.752,5.714,17.669a178.118,178.118,0,0,0,6.1,17.428c2.54,6,5.759,11.7,8.381,17.682,1.365,3.117,3.333,7.035,2.216,10.508-.673,2.089-3.7,4.152-5.714,2.457a.724.724,0,0,0-1.022,1.016c.921.965-.971,2.387-1.7,2.806a50.06,50.06,0,0,1-4.654,2.184q-4.9,2.2-9.924,4.1a184.138,184.138,0,0,1-20.107,6.349c-3.86.978-7.74,1.9-11.644,2.641-.7.133-.4,1.181.292,1.06Z" transform="translate(-96.932 -382.108)" fill="#accbcb"/>
      <path id="Path_71" data-name="Path 71" d="M200.086,392.532c4.87-4.933,10.825-9.136,17.523-11.085a.658.658,0,0,0-.343-1.27c-3.5.724-6.787,2.648-9.727,4.616a50.291,50.291,0,0,0-8.254,6.914c-.508.527.286,1.327.8.806Z" transform="translate(-104.858 -380.154)" fill="#accbcb"/>
    </g>
    <g id="Group_22" data-name="Group 22" transform="translate(71.799 438.587)">
      <path id="Path_72" data-name="Path 72" d="M99.674,810.088a13.969,13.969,0,0,0,3.809,6.108.635.635,0,0,0,1.035-.273q2.349-6.673,4.641-13.384c.273-.8-1-1.149-1.27-.349q-2.3,6.7-4.578,13.4l1.035-.273a12.8,12.8,0,0,1-3.581-5.536c-.222-.692-1.308-.4-1.092.3Z" transform="translate(-99.646 -719.36)" fill="#fff"/>
      <path id="Path_73" data-name="Path 73" d="M148.872,694.923a115.255,115.255,0,0,1,8.133-13.4q2.273-3.232,4.774-6.286c.394-.483.781-.978,1.2-1.441s.806-.635,1.27-.146c.971,1-.21,2.489-.863,3.314-.546.686.387,1.676.984.991l1.6-1.841c.171-.2.927-1.352,1.238-1.27s.3,1.625.317,1.873q.051,1.175.076,2.343.133,4.755.1,9.524a.635.635,0,0,0,1.2,0q.248-6.171,0-12.323c-.051-1.1-.3-2.908-1.8-2.825-.775.044-1.27.7-1.721,1.27l-1.994,2.3.984.991c1.194-1.5,2.54-3.721.781-5.359a2.1,2.1,0,0,0-2.229-.514c-.978.406-1.657,1.632-2.3,2.432a113.362,113.362,0,0,0-8.552,12.3q-2.209,3.67-4.114,7.53c-.311.635.635,1.168.94.546Z" transform="translate(-117.264 -671.991)" fill="#fff"/>
      <path id="Path_74" data-name="Path 74" d="M208.139,791.344q4.082,17.066,9.257,33.853,2.6,8.381,5.467,16.679a115.808,115.808,0,0,0,6.349,15.828c1.441,2.736,3.092,5.358,4.476,8.127a35.953,35.953,0,0,1,3.086,8.99c.159.794,1.384.457,1.219-.337a37.994,37.994,0,0,0-2.482-7.689c-1.143-2.54-2.578-4.959-3.955-7.39a97.214,97.214,0,0,1-6.787-15.841q-5.79-16.564-10.539-33.472-2.667-9.486-5-19.047a.566.566,0,0,0-1.092.3Z" transform="translate(-139.249 -715.308)" fill="#fff"/>
    </g>
    <path id="Path_75" data-name="Path 75" d="M304.22,937.087a8.267,8.267,0,0,0,3.416-3.7c1.117-3.029-1.187-6.349-3.981-7.943s-6.076-2.165-8.933-3.657c-5.314-2.762-8.222-8.076-10.076-13.968a90,90,0,0,0-21.32,2.2,7.938,7.938,0,0,0-4.14,1.714c-2.279,2.184-1.5,6.222-3.517,8.647l-16.958,4.749c.184.8.336,1.606.451,2.419.324,2.3.375,4.679,1.168,6.87,2.8,7.689,12.762,9.333,20.952,9.74C276.03,944.915,291.96,945.34,304.22,937.087Z" transform="translate(-78.618 -319.488)" fill="#accbcb"/>
    <path id="Path_76" data-name="Path 76" d="M356.234,937.493c6.349-.419,13.72-2.813,15.384-8.933,1.518-5.575-2.641-11.041-6.984-14.889a74.419,74.419,0,0,0-9-6.87c-1.39-.9-2.876-1.835-3.587-3.327a8.088,8.088,0,0,1-.6-2.933c-.152-2.2-.21-4.444-.21-6.622a88.662,88.662,0,0,0-14.076,1.7,21.644,21.644,0,0,0-7.117,2.127c-2.159,1.238-3.943,3.428-3.981,5.917a3.55,3.55,0,0,1-.375,2.286,2.7,2.7,0,0,1-1.727.768l-12.1,2.19c.267,2.152.457,4.324.552,6.514.121,3.086.121,6.4,1.9,8.92a13.177,13.177,0,0,0,3.79,3.282A63.072,63.072,0,0,0,356.234,937.493Z" transform="translate(-105.325 -314.428)" fill="#accbcb"/>
    <path id="Path_77" data-name="Path 77" d="M320.342,920.721q3.371,1.9,6.774,3.809c2.152,1.175,4.355,2.292,6.444,3.575a6.386,6.386,0,0,1,3.365,4.5,10.1,10.1,0,0,1-1.206,5.765.825.825,0,0,0,1.422.832,10.013,10.013,0,0,0,1.606-6.349,7.245,7.245,0,0,0-3.117-5.3,21.886,21.886,0,0,0-3.029-1.72c-1.27-.635-2.54-1.314-3.809-1.975q-3.943-2.05-7.9-4.051c-.635-.318-1.194.635-.559.965Z" transform="translate(-108.315 -323.858)" fill="#091010"/>
    <path id="Path_78" data-name="Path 78" d="M188.1,369.523c-2.336-1.657-4.692-3.244-6.863-5.117-1.829-1.581-4.394-3.454-4.971-5.936-.6-2.584,1.162-4.952,3.022-6.52a24.545,24.545,0,0,1,3.314-2.337,3.823,3.823,0,0,1,3.378-.635c1.479.667.851,2.425.165,3.46a21.748,21.748,0,0,0-2.336,3.524c-.279.679.508,1.187,1.079,1.079a5.448,5.448,0,0,1,5.86,3.321c.375.851,1.816.241,1.5-.635a6.984,6.984,0,0,0-7.828-4.368l1.079,1.079c.59-1.416,1.867-2.406,2.54-3.765a4.047,4.047,0,0,0,.044-4.178,3.867,3.867,0,0,0-3.5-1.479,9.468,9.468,0,0,0-4.254,1.9c-2.54,1.714-5.143,3.867-5.822,7.016-.711,3.27,1.187,5.746,3.479,7.828a40.093,40.093,0,0,0,9.524,6.679.552.552,0,0,0,.559-.946Z" transform="translate(-55.121 -114.747)"/>
    <path id="Path_79" data-name="Path 79" d="M497.516,412.367l-30.075,10.089c-3.371,1.13-7.092,2.54-8.578,5.8-1.2,2.6-.584,5.638.216,8.387a70.536,70.536,0,0,0,7.333,16.641,8.653,8.653,0,0,0,1.9,2.368,6.5,6.5,0,0,0,3.13,1.213,21.28,21.28,0,0,0,7.828-.724,139.562,139.562,0,0,0,23.123-7.486c3.809-1.606,7.943-3.886,8.889-7.892.571-2.444-.216-4.971-1-7.352l-5.822-17.587a5.186,5.186,0,0,0-6.984-3.428" transform="translate(-158.749 -138.493)"/>
    <path id="Path_80" data-name="Path 80" d="M496.726,411.174c-5.778,1.9-11.568,3.733-17.339,5.625l-8.59,2.806c-2.54.819-5.079,1.549-7.5,2.584a12.284,12.284,0,0,0-5.276,3.848,9.54,9.54,0,0,0-1.308,7.219,40.51,40.51,0,0,0,2.279,7.816,71.8,71.8,0,0,0,3.365,7.682c.635,1.27,1.3,2.476,2.013,3.689a14.845,14.845,0,0,0,2.1,3.029c1.9,1.943,4.933,2.222,7.517,2.013a50.456,50.456,0,0,0,8.438-1.714c2.806-.73,5.6-1.549,8.355-2.451s5.416-1.835,8.057-2.914a52.453,52.453,0,0,0,6.838-3.073,13.6,13.6,0,0,0,4.781-4.2,9.358,9.358,0,0,0,1.073-7.117,72.442,72.442,0,0,0-2.578-8.3l-2.8-8.514c-1.117-3.4-1.962-7.962-6.241-8.559a7.39,7.39,0,0,0-3.238.336c-1.086.343-.635,2.057.476,1.721a4.388,4.388,0,0,1,4.571.8c1.124,1.117,1.441,2.654,1.9,4.114q2.54,7.841,5.13,15.682c.762,2.343,1.581,4.9.768,7.34a8.919,8.919,0,0,1-3.67,4.286,32.269,32.269,0,0,1-5.714,2.857q-3.619,1.473-7.314,2.743a133.679,133.679,0,0,1-15.333,4.311c-2.508.533-5.282,1-7.784.178-2.235-.73-3.289-3.251-4.343-5.155a68.857,68.857,0,0,1-5.879-14.158c-.635-2.3-1.27-4.851-.387-7.174a7.863,7.863,0,0,1,4.076-4.038,44.767,44.767,0,0,1,6.19-2.375l7.949-2.743c5.3-1.822,10.6-3.676,15.873-5.511l3.9-1.346c.832-.286.483-1.613-.368-1.333Z" transform="translate(-158.143 -137.967)"/>
    <path id="Path_81" data-name="Path 81" d="M463.706,430a18.74,18.74,0,0,0,8.2,4.94c3.46,1.156,6.94,2.317,10.444,3.314a9.143,9.143,0,0,0,4.92.273,8.362,8.362,0,0,0,3.562-2.241,39.627,39.627,0,0,0,3.035-3.644c1.1-1.4,2.184-2.8,3.244-4.229,2.216-2.984,4.686-6.19,4.857-10.057.045-1.086-1.638-1.086-1.682,0-.133,3.079-2.083,5.714-3.809,8.12-1.854,2.54-3.771,5.124-5.816,7.536a9.766,9.766,0,0,1-3.029,2.6,6.409,6.409,0,0,1-4.406.159c-3.174-.787-6.349-1.854-9.524-2.768a29.982,29.982,0,0,1-5.079-1.778,15.63,15.63,0,0,1-4.146-2.965c-.489-.489-1.219.254-.756.755Z" transform="translate(-160.716 -140.504)" fill="#fff"/>
    <path id="Path_82" data-name="Path 82" d="M408.977,198.5l-46.843,15.72c-5.251,1.759-11.047,3.994-13.365,9.022-1.867,4.044-.908,8.787.343,13.066a109.645,109.645,0,0,0,11.428,25.949,13.335,13.335,0,0,0,2.933,3.7,10.114,10.114,0,0,0,4.87,1.9c4.063.6,8.19-.21,12.2-1.13a216.989,216.989,0,0,0,36.025-11.657c5.9-2.5,12.368-6.051,13.822-12.292.889-3.809-.343-7.746-1.555-11.428l-9.009-27.466c-.87-2.654-3.924-7.568-10.832-5.34" transform="translate(-118.418 -60.345)" fill="#accbcb"/>
    <path id="Path_83" data-name="Path 83" d="M408.19,197.3q-13.231,4.349-26.469,8.692l-13.231,4.368c-3.867,1.27-7.816,2.406-11.581,3.955-3.067,1.27-6.121,2.908-8.216,5.555-2.457,3.1-2.959,6.984-2.432,10.793a59.975,59.975,0,0,0,3.378,12.006,112.113,112.113,0,0,0,5.028,11.714c.946,1.9,1.956,3.778,3.009,5.625a31.793,31.793,0,0,0,3.3,5.079c2.768,3.175,7.371,3.7,11.346,3.422a73.325,73.325,0,0,0,13.143-2.616c4.3-1.111,8.514-2.33,12.7-3.689s8.355-2.851,12.463-4.444a90.191,90.191,0,0,0,10.609-4.667,21.861,21.861,0,0,0,7.581-6.349c2.216-3.206,2.54-7.022,1.835-10.793a52.011,52.011,0,0,0-1.816-6.3l-2.171-6.6-4.317-13.13q-1.073-3.282-2.159-6.565a11.942,11.942,0,0,0-1.27-2.762,8.6,8.6,0,0,0-5.892-3.994,10.876,10.876,0,0,0-4.914.508c-1.092.343-.635,2.057.476,1.721,2.584-.8,5.378-.749,7.447,1.187,1.8,1.689,2.368,3.955,3.111,6.228l8.114,24.761c1.225,3.759,2.571,7.866,1.314,11.8a13.905,13.905,0,0,1-5.581,6.851,46.22,46.22,0,0,1-9,4.584q-5.835,2.406-11.816,4.444a206.651,206.651,0,0,1-24.063,6.781c-3.975.851-8.368,1.562-12.33.267a7.841,7.841,0,0,1-4.114-3.251c-1.1-1.638-2.07-3.384-3.022-5.111A107.165,107.165,0,0,1,349.4,235.05c-1.016-3.568-1.848-7.473-.635-11.1,1.029-3.06,3.606-5.168,6.349-6.647a66.836,66.836,0,0,1,9.771-3.809l12.444-4.248q12.527-4.267,25.028-8.578l6.146-2.1c.838-.286.489-1.613-.368-1.333Z" transform="translate(-117.815 -59.809)"/>
    <path id="Path_84" data-name="Path 84" d="M356.694,226.015a25.04,25.04,0,0,0,5.663,4.571,35.991,35.991,0,0,0,7.1,2.99c5.314,1.727,10.647,3.473,16.019,5.009a13.831,13.831,0,0,0,7.7.444,12.838,12.838,0,0,0,5.435-3.536,69.125,69.125,0,0,0,4.686-5.682c1.683-2.146,3.346-4.292,4.965-6.482,3.333-4.5,7.143-9.409,7.359-15.238.044-1.086-1.644-1.086-1.682,0-.184,4.851-3.219,9-5.949,12.793-2.94,4.07-5.987,8.133-9.238,11.968a15.745,15.745,0,0,1-4.673,4.038,10.158,10.158,0,0,1-7.149.381c-2.54-.635-5.009-1.448-7.5-2.2s-5.079-1.511-7.619-2.26a46.1,46.1,0,0,1-7.981-2.857,24.463,24.463,0,0,1-6.349-4.686c-.483-.489-1.219.254-.756.756Z" transform="translate(-121.651 -63.739)" fill="#091010"/>
    <path id="Path_85" data-name="Path 85" d="M848.216,152.592l-27.2,9.13c-3.048,1.022-6.419,2.317-7.765,5.238-1.079,2.349-.527,5.079.2,7.587a63.579,63.579,0,0,0,6.628,15.073,7.746,7.746,0,0,0,1.7,2.14,5.923,5.923,0,0,0,2.825,1.1,19.7,19.7,0,0,0,7.086-.635,126,126,0,0,0,20.914-6.774c3.429-1.448,7.187-3.511,8.031-7.136.514-2.209-.2-4.5-.908-6.654L854.5,155.716a4.656,4.656,0,0,0-6.286-3.1" transform="translate(-288.159 -43.661)" fill="#accbcb"/>
    <path id="Path_86" data-name="Path 86" d="M847.43,151.417c-5.244,1.7-10.5,3.378-15.739,5.079l-7.79,2.54c-2.228.73-4.5,1.378-6.666,2.286a11.325,11.325,0,0,0-4.819,3.46,8.534,8.534,0,0,0-1.27,6.527,36.194,36.194,0,0,0,2.051,7.13,65.757,65.757,0,0,0,3,6.9c.584,1.162,1.212,2.311,1.866,3.435a14.264,14.264,0,0,0,1.9,2.813c1.664,1.721,4.273,2.044,6.559,1.9a40.63,40.63,0,0,0,7.619-1.479q3.873-.99,7.676-2.229t7.384-2.628a51.27,51.27,0,0,0,6.19-2.743,12.99,12.99,0,0,0,4.444-3.752A8.381,8.381,0,0,0,861,174.2a58.309,58.309,0,0,0-2.349-7.663l-2.54-7.822c-1.041-3.174-1.829-7.282-5.79-7.79a6.736,6.736,0,0,0-2.882.324.892.892,0,0,0,.47,1.721,3.872,3.872,0,0,1,4.1.743c1.016,1.041,1.27,2.54,1.733,3.854,1.575,4.8,3.175,9.593,4.711,14.412.635,2.044,1.27,4.317.457,6.413a8.4,8.4,0,0,1-3.454,3.74,32.227,32.227,0,0,1-5.314,2.54q-3.352,1.352-6.787,2.54a116.649,116.649,0,0,1-13.7,3.746c-2.171.451-4.717.857-6.844,0-1.936-.762-2.914-3.175-3.841-4.9a61.717,61.717,0,0,1-5.149-12.571c-.59-2.063-1.117-4.444-.235-6.5a7.416,7.416,0,0,1,3.727-3.473,52.61,52.61,0,0,1,6.647-2.489l7.759-2.679c5.365-1.854,10.724-3.74,16.089-5.6.832-.286.489-1.613-.368-1.333Z" transform="translate(-287.557 -43.153)"/>
    <path id="Path_87" data-name="Path 87" d="M817.553,168.516a16.876,16.876,0,0,0,7.371,4.444c3.175,1.054,6.3,2.108,9.485,3.022a8.381,8.381,0,0,0,4.54.254,7.619,7.619,0,0,0,3.175-2.006,34.56,34.56,0,0,0,2.806-3.352c1-1.27,1.993-2.54,2.958-3.86,2.013-2.7,4.216-5.6,4.374-9.1.051-1.086-1.632-1.079-1.682,0-.127,2.768-1.867,5.124-3.435,7.289-1.676,2.33-3.416,4.654-5.276,6.844a8.761,8.761,0,0,1-2.686,2.311,5.805,5.805,0,0,1-4.063.108c-2.94-.736-5.835-1.7-8.749-2.54-3.028-.87-5.8-1.943-8.076-4.2a.534.534,0,1,0-.756.756Z" transform="translate(-289.888 -45.42)" fill="#fff"/>
    <path id="Path_88" data-name="Path 88" d="M452.367,168.911a114.664,114.664,0,0,1-64.125,57.7c-10.7,3.809-22.4,6.349-33.65,3.486a46.753,46.753,0,0,1-25.13-17.009c-6.648-8.66-10.52-19.263-11.955-30.031-1.416-10.641-.508-21.917,3.936-31.783a61.492,61.492,0,0,1,8.6-13.1c3.1-3.854,6.279-7.759,8.216-12.355s2.013-9.428,2.26-14.317c.222-4.489.692-9.409,4.089-12.7,3.136-3.067,7.619-4.127,11.117-6.724a11.689,11.689,0,0,0,4.006-5.168c.959-2.463,1.111-5.168,2.083-7.619.825-2.082,2.286-4.051,4.616-4.444l-.825-1.416a5.552,5.552,0,0,0-1.4,5.416c.464,2.3,1.9,4.14,2.99,6.178a6.19,6.19,0,0,1,.444,5.5,12.006,12.006,0,0,1-2.9,3.638c-2.381,2.2-5.289,4.089-6.952,6.984a6.755,6.755,0,0,0,2.457,9.473c4.444,2.463,10.025-1.359,9.562-6.4l-1.162.883c2.54.5,2.47,4.038,1.746,5.949-1.162,3.079-3.74,5.67-3.346,9.2.559,5.028,6.679,6.635,10.85,5.276,5.975-1.943,7.619-9.054,8.089-14.565.565-6.425,0-14.019,5.562-18.514,2.908-2.349,6.565-3.524,9.524-5.835s5.079-5.536,4.476-9.32l-1.352,1.041c3.054,1.9,3.175,6.209,1.943,9.238-1.638,4.127-5.384,7.047-7.974,10.552a9.817,9.817,0,0,0-2.286,6,5.638,5.638,0,0,0,2.457,4.482c2.679,1.74,5.34-.051,6.622-2.5.7-1.333,1.168-2.775,1.822-4.127a4.657,4.657,0,0,1,2.679-2.8l-1.181-.9q.387,4.444.8,8.889l.4,4.235a16.214,16.214,0,0,0,.5,3.549,3.786,3.786,0,0,0,4.444,2.47,8,8,0,0,0,4.825-3.175c2.66-3.384,3.625-7.657,5.048-11.625a21.23,21.23,0,0,1,2.908-5.714,20.239,20.239,0,0,1,4.444-4.19c3.39-2.432,7.2-4.19,10.762-6.349a31.928,31.928,0,0,0,9.6-8.844c2.7-3.809,4.813-7.974,7.562-11.733a41.319,41.319,0,0,1,9.46-9.022c7.758-5.587,16.685-9.943,22.437-17.854l-1.784-.483c-.127,3.721-2.959,6.381-5.594,8.66-2.952,2.54-6.114,4.971-8.006,8.476-2.19,4.044-2.762,8.666-4.127,13a23.41,23.41,0,0,1-7.092,10.5c-3.3,2.94-7.041,5.308-10.539,7.981a52.8,52.8,0,0,0-9.936,9.974,104,104,0,0,0-7.93,12.425c-1.194,2.127-2.432,4.248-3.5,6.438a13.559,13.559,0,0,0-1.74,6.825,8.07,8.07,0,0,0,2.755,5.746,6.1,6.1,0,0,0,6.533.635c4.971-2.343,5.632-8.343,9.612-11.619l-1.9-.508c2.94,7.2-.317,14.666-4.387,20.7-1.06,1.568-2.2,3.086-3.4,4.552a52.957,52.957,0,0,0-3.689,4.584c-1.556,2.413-2.413,6.438.755,7.962,2.121,1.022,6.019.4,5.644-2.679l-1.175,1.175c1.9-.038.794,3.809.5,4.768-.6,1.9-1.022,4.679.571,6.235,2.362,2.3,5.32-.635,6.946-2.343a30.54,30.54,0,0,0,5.435-7.936h-1.727a10.971,10.971,0,0,1-1.384,12.12c-.832.946.559,2.343,1.39,1.39a13.035,13.035,0,0,0,1.72-14.514,1,1,0,0,0-1.727,0,28.173,28.173,0,0,1-5.155,7.5c-.787.813-2.3,2.755-3.594,2.508-.813-.152-.883-1.181-.883-1.841,0-2.114,1.225-3.943,1.206-6.082,0-2.038-1-4.146-3.3-4.159a1.187,1.187,0,0,0-1.225,1.175c.082.635-.273.787-.952.825a2.159,2.159,0,0,1-1.9-.768c-.825-1.219.178-3.1.851-4.146a44,44,0,0,1,3.111-3.86c4.127-5.022,8.089-10.793,9.4-17.257a18.1,18.1,0,0,0-.838-10.533,1.181,1.181,0,0,0-1.9-.514c-3.4,2.8-4.216,7.568-7.619,10.324-1.568,1.27-3.759,1.9-5.479.54a5.955,5.955,0,0,1-1.943-4.755c.083-2.54,1.352-4.882,2.54-7.06,1.092-2.025,2.2-4.051,3.333-6.051a88.806,88.806,0,0,1,7.752-11.822,52.294,52.294,0,0,1,9.72-9.263,118.3,118.3,0,0,0,9.917-7.67,24.761,24.761,0,0,0,6.813-10.159c1.428-4.152,1.9-8.647,3.771-12.641s5.333-6.451,8.508-9.238c2.933-2.54,5.638-5.574,5.784-9.663.038-1.029-1.27-1.187-1.778-.483-4.94,6.762-12.47,10.851-19.269,15.447a57.138,57.138,0,0,0-9.619,7.8c-3.022,3.175-5.251,6.984-7.53,10.7s-4.7,7.447-8.152,10.235c-3.124,2.54-6.781,4.286-10.247,6.26-3.359,1.9-6.685,4.082-9.092,7.168-2.54,3.263-3.606,7.263-4.921,11.111a22.311,22.311,0,0,1-2.94,6.12c-1.079,1.46-3.206,3.467-5.238,2.736-1.206-.432-1.27-1.9-1.352-2.965l-.438-4.622c-.3-3.206-.59-6.419-.876-9.632a.94.94,0,0,0-1.181-.9c-2.6.724-3.689,3.314-4.635,5.6-.743,1.79-2.082,5.524-4.73,4.216-1.9-.927-2.14-3.276-1.556-5.079.692-2.121,2.3-3.886,3.746-5.53,2.609-2.971,5.651-6.032,6.584-10.012.838-3.594.076-7.79-3.244-9.86a.933.933,0,0,0-1.352,1.041c.533,3.289-2.044,6.19-4.552,7.93-2.648,1.841-5.714,2.99-8.292,4.927-5.327,3.981-6.19,10.419-6.527,16.628a41.224,41.224,0,0,1-1.194,9.251c-.762,2.629-2.209,5.46-4.724,6.793-3.536,1.9-10.355.635-9.574-4.546.521-3.4,3.4-5.892,3.733-9.384.235-2.5-.73-5.5-3.492-6.044a.927.927,0,0,0-1.162.883c.381,4.152-4.444,7.016-7.7,4.2-2.635-2.267-1.848-5.574.165-7.9,3.473-4,10.59-7.359,9.225-13.714-.5-2.349-2.1-4.216-3.13-6.349-.876-1.784-1.39-4.33.286-5.809.7-.635-.076-1.536-.832-1.422-5.384.819-6.209,7.143-7.352,11.371a10.533,10.533,0,0,1-4.006,6.082,41.907,41.907,0,0,1-5.79,3.219,21.746,21.746,0,0,0-5.486,3.632,13.8,13.8,0,0,0-3.448,5.809c-1.473,4.7-1.06,9.771-1.53,14.6a28.1,28.1,0,0,1-5.632,13.854c-3.016,4.2-6.584,7.987-9.435,12.311-6.127,9.276-8.52,20.609-8.254,31.618a68.6,68.6,0,0,0,8.6,32.044,51.373,51.373,0,0,0,22.92,21.4,42.971,42.971,0,0,0,15.174,3.873,57.96,57.96,0,0,0,18.457-2.19,110.119,110.119,0,0,0,28.291-12.158A117.683,117.683,0,0,0,432,199.971a115.128,115.128,0,0,0,17.949-24.012q1.79-3.219,3.371-6.552c.3-.635-.635-1.194-.952-.559Z" transform="translate(-106.489 -1.74)" fill="#accbcb"/>
    <path id="Path_89" data-name="Path 89" d="M446.869,350.849c-2.5,5.587-7.168,9.657-11.32,13.968a43.344,43.344,0,0,0-5.492,6.781,24.444,24.444,0,0,0-3.308,8.641,30.329,30.329,0,0,0,2.54,18.228,34.239,34.239,0,0,0,12.254,13.65c11.8,7.778,26.457,8.622,40,6.114a79.287,79.287,0,0,0,18.412-5.613,42.286,42.286,0,0,0,14.165-9.962,28.625,28.625,0,0,0,4.692-7.041,63.583,63.583,0,0,0,2.99-9.632,27.051,27.051,0,0,1,1.765-4.87,27.39,27.39,0,0,1,2.908-4.355c2.051-2.66,4.127-5.384,4.584-8.812a8.254,8.254,0,0,0-.679-4.635c-.432-.959-1.9-.432-1.9.508a3.854,3.854,0,0,1-7.708,0,8.583,8.583,0,0,1,1.854-4.565c1.054-1.575,2.273-3.054,3.175-4.717a8.013,8.013,0,0,0,1.086-5.835,1.029,1.029,0,0,0-1.86-.241c-1.9,3.454-3.968,7.27-7.549,9.225-2.578,1.409-6.438,1.511-8.609-.7-2.832-2.889-.737-7.314,1.517-9.822,2.673-2.978,6.349-4.825,8.959-7.917,1.27-1.543,2.584-3.524,2.343-5.625-.229-1.987-2.006-3.359-2.108-5.365-.222-4.222,4.057-6.933,7.06-9.016a20.551,20.551,0,0,0,4.546-3.93,15.785,15.785,0,0,0,2.641-5.53c.578-2.013.971-4.076,1.7-6.044a21.028,21.028,0,0,1,3.339-5.657c3.448-4.368,7.194-8.419,10.768-12.622L560.9,272.279l-1.4-1.39c-12.063,14.736-24.126,29.587-38.526,42.126a71.447,71.447,0,0,1-11.073,8.457,19.567,19.567,0,0,1-6.222,2.381c-2.381.425-4.825.2-7.225.508-8.546,1.092-11.168,9.981-16.311,15.555a28.845,28.845,0,0,1-5.651,4.736c-1.27.825-4.914,3.492-5.574.787-1.029-4.209,4.14-7.282,7.187-8.92a.99.99,0,0,0,.2-1.543c-2.19-2.121-5.67-1.771-8.025-.108-2.819,2-3.9,5.409-5.27,8.419a14.123,14.123,0,0,1-2.54,4.044c-.794.832-2.914,2.54-4.082,1.46-.965-.889,0-2.768.5-3.638a23.231,23.231,0,0,0,2.489-4.692,5.53,5.53,0,0,0-.635-4.857,3.848,3.848,0,0,0-4.19-1.784,1,1,0,0,0-.235,1.81c.813.508.635,1.708.273,2.451-.59,1.181-1.974,1.8-3.1,2.362-2.444,1.232-5.079,3.054-4.6,6.165.19,1.27,2.083.717,1.9-.527-.229-1.486,1.327-2.667,2.457-3.3a20.349,20.349,0,0,0,3.987-2.375c1.841-1.651,2.419-5.009.076-6.5l-.235,1.809c1.27-.343,2.235,1,2.54,2.114.394,1.543-.514,3.13-1.27,4.413-1.27,2.121-3.708,5.568-1.409,7.9,2.54,2.571,6.349-.463,7.943-2.609,1.9-2.54,2.641-5.714,4.241-8.4a7.193,7.193,0,0,1,3.651-3.352,3.937,3.937,0,0,1,4.127.578l.2-1.543c-3.244,1.752-7.232,4.3-8.07,8.19-.387,1.8-.146,4.311,1.7,5.232,1.975,1,4.279-.457,5.943-1.46a31.81,31.81,0,0,0,9.759-9.27c2.2-3.175,4.07-6.87,7.193-9.289a10.946,10.946,0,0,1,6.121-2.152,45.68,45.68,0,0,0,7.333-.635c4.59-1.1,8.5-3.981,12.114-6.882a198.861,198.861,0,0,0,21.733-20.59c6.793-7.365,13.25-15.022,19.606-22.768q1.194-1.435,2.368-2.889c.794-.965-.559-2.362-1.4-1.39-6.921,8.076-13.917,16.095-20.768,24.241a32.59,32.59,0,0,0-4.051,5.714,28.4,28.4,0,0,0-2.19,6.349,20.229,20.229,0,0,1-2.235,6.038,15.985,15.985,0,0,1-4.679,4.317c-3.384,2.336-7.238,4.984-7.879,9.4a6.471,6.471,0,0,0,.235,3.016,20.676,20.676,0,0,0,1.441,2.755c1.067,2.063-.591,4.228-1.968,5.714-2.876,3.086-6.774,5.035-9.346,8.425-2.362,3.124-3.7,7.619-1.035,11,2.2,2.794,6.266,3.359,9.524,2.394,3.975-1.175,6.711-4.654,8.755-8.063.54-.9,1.041-1.81,1.543-2.724l-1.86-.248c.451,1.9-.483,3.714-1.5,5.282-1.156,1.8-2.571,3.441-3.581,5.34a7.26,7.26,0,0,0-.794,5.962,5.879,5.879,0,0,0,11.428-1.994l-1.9.514c1.371,3.016-.279,6.406-2.006,8.889-1.9,2.724-4.1,5.143-5.4,8.254a81.053,81.053,0,0,0-2.813,9.574,26.546,26.546,0,0,1-3.632,7.708c-6.5,9.4-18.177,14.006-28.863,16.6-13.13,3.175-27.549,3.651-39.834-2.736a35.041,35.041,0,0,1-13.187-11.5,29.206,29.206,0,0,1-4.863-17.085,24.762,24.762,0,0,1,1.9-8.755,28.831,28.831,0,0,1,4.717-7.3c3.663-4.33,8.057-8.07,11.168-12.857a25.024,25.024,0,0,0,2-3.727c.279-.635-.673-1.225-.965-.565Z" transform="translate(-147.111 -86.855)"/>
    <path id="Path_90" data-name="Path 90" d="M644.637,243.931l-46.843,15.727c-5.251,1.759-11.047,3.994-13.365,9.022-1.867,4.044-.908,8.787.343,13.06A109.576,109.576,0,0,0,596.2,307.695a13.272,13.272,0,0,0,2.927,3.689,10.23,10.23,0,0,0,4.876,1.9c4.063.6,8.19-.21,12.2-1.13a216.733,216.733,0,0,0,36.018-11.663c5.911-2.5,12.374-6.044,13.828-12.292.889-3.809-.343-7.74-1.555-11.428l-9.009-27.46c-.87-2.654-3.924-7.568-10.831-5.34" transform="translate(-204.456 -76.931)" fill="#fff"/>
    <path id="Path_91" data-name="Path 91" d="M643.835,242.729c-8.819,2.9-17.651,5.778-26.469,8.692l-13.257,4.362c-3.867,1.27-7.816,2.413-11.581,3.962-3.067,1.27-6.121,2.908-8.216,5.555-2.457,3.1-2.959,6.984-2.432,10.793a58.909,58.909,0,0,0,3.378,12.006,112.1,112.1,0,0,0,5.028,11.714c.946,1.9,1.956,3.809,3.01,5.632a31.74,31.74,0,0,0,3.3,5.079c2.768,3.175,7.371,3.7,11.346,3.429a73.321,73.321,0,0,0,13.142-2.616c4.3-1.111,8.514-2.33,12.7-3.7s8.355-2.844,12.463-4.444a90.2,90.2,0,0,0,10.647-4.711,21.862,21.862,0,0,0,7.581-6.349c2.216-3.206,2.54-7.022,1.835-10.793a52.049,52.049,0,0,0-1.816-6.3l-2.159-6.565-4.317-13.13q-1.079-3.289-2.159-6.565a11.829,11.829,0,0,0-1.27-2.762,8.585,8.585,0,0,0-5.892-3.994,10.959,10.959,0,0,0-4.914.5c-1.092.349-.635,2.063.476,1.721,2.584-.794,5.378-.743,7.447,1.194,1.8,1.689,2.368,3.955,3.111,6.228l8.114,24.761c1.225,3.765,2.571,7.873,1.314,11.809a14.062,14.062,0,0,1-5.581,6.844,46.605,46.605,0,0,1-9,4.59q-5.835,2.413-11.816,4.444a206.61,206.61,0,0,1-24.063,6.774c-3.975.851-8.368,1.568-12.33.273a7.88,7.88,0,0,1-4.114-3.257c-1.1-1.632-2.07-3.378-3.022-5.079a107.014,107.014,0,0,1-9.25-22.317c-1.016-3.568-1.848-7.466-.635-11.092,1.029-3.06,3.606-5.174,6.349-6.647a66.841,66.841,0,0,1,9.771-3.809l12.444-4.247q12.527-4.279,25.028-8.578l6.146-2.1c.838-.286.489-1.619-.368-1.333Z" transform="translate(-203.839 -76.396)"/>
    <path id="Path_92" data-name="Path 92" d="M592.357,271.448a25.217,25.217,0,0,0,5.663,4.571,35.992,35.992,0,0,0,7.1,2.99c5.314,1.727,10.647,3.467,16.019,5.009a13.831,13.831,0,0,0,7.695.444,12.914,12.914,0,0,0,5.435-3.543,67.063,67.063,0,0,0,4.686-5.682c1.682-2.14,3.346-4.292,4.965-6.476,3.333-4.5,7.143-9.416,7.359-15.238.044-1.079-1.644-1.079-1.683,0-.184,4.851-3.219,9.009-5.949,12.793-2.94,4.076-5.987,8.14-9.238,11.968a15.674,15.674,0,0,1-4.673,4.044,10.192,10.192,0,0,1-7.149.375c-2.54-.635-5.009-1.448-7.5-2.19s-5.079-1.511-7.619-2.26a46.637,46.637,0,0,1-7.974-2.863,24.463,24.463,0,0,1-6.349-4.686c-.482-.5-1.219.254-.755.755Z" transform="translate(-207.693 -80.328)"/>
    <path id="Path_93" data-name="Path 93" d="M807.6,86.932c-1.854,6.267-8.52,8.933-13.784,11.758a33.467,33.467,0,0,0-8.114,5.574,25.967,25.967,0,0,0-5.93,9.892c-3,8.762-1.816,18.158-.508,27.117,1.149,7.879,2.438,16.349,8.755,21.892,5.511,4.832,12.933,6.54,20.012,7.486,4.032.54,8.1.908,12.165,1.175a77.051,77.051,0,0,0,13.333-.089,41.017,41.017,0,0,0,12.444-3.206,42.828,42.828,0,0,0,10.33-6.806,102.218,102.218,0,0,0,8.832-8.838c2.781-3.054,5.581-6.108,8.127-9.365a45.482,45.482,0,0,0,6.482-10.793c1.581-3.9,2.083-8.057,2.882-12.165A23.641,23.641,0,0,1,887,110c2.178-2.755,4.882-5.27,6.3-8.533a9.3,9.3,0,0,0,.774-4.87,1.124,1.124,0,0,0-2.07-.559c-4.076,6.1-8.724,12.882-16.349,14.6-3.282.736-7.365.413-9.917-2.025-1.555-1.492-1.009-3.263,0-4.927,1.149-1.9,2.464-3.809,3.7-5.676l8.489-12.939c.756-1.143-1.054-2.165-1.816-1.067-1.676,2.413-3.644,5.365-6.629,6.222-2.216.635-5.308,0-5.892-2.54s.889-5.308,2.47-7.168a35.752,35.752,0,0,1,5.619-4.971,47.38,47.38,0,0,0,5.962-5.079c2.222-2.387,3.467-5.251,4.774-8.2a29.674,29.674,0,0,1,4.686-7.422c1.847-2.14,3.9-4.082,5.943-6.032,4.483-4.267,9.073-8.736,11.028-14.774.318-.965-1.079-1.841-1.765-1.029a145.049,145.049,0,0,1-21.206,21.269,89.134,89.134,0,0,1-12.546,8.374c-4.527,2.482-9.454,4.3-13.644,7.371a76.422,76.422,0,0,0-9.206,8.527c-2.813,2.87-5.714,5.778-9.257,7.752a17.346,17.346,0,0,1-5.473,1.968c-1.117.2-2.209.216-2.724-.959a6.633,6.633,0,0,1-.444-2.413c-.076-3.136,1.53-5.987,3.244-8.5,1.9-2.844,4.209-5.454,6.089-8.336,1.727-2.648,3.175-5.714,3.054-8.927a10.894,10.894,0,0,0-.375-2.432c-.375-1.4-2.324-.775-2.127.59.425,2.9-1.829,5.359-4.019,6.908-2.425,1.714-5.251,2.648-7.911,3.917s-5.232,2.857-6.743,5.4c-1.39,2.349-1.568,5.143-1.746,7.8-.171,2.54-.216,5.816-2.54,7.416l1.479.387c-1.333-2.178-2.762-4.3-4.1-6.489-.635-1.067-2.343-.089-1.689.984,1.34,2.184,2.578,4.444,3.911,6.6a1.092,1.092,0,0,0,1.486.387c5.079-3.435,2.578-10.228,4.641-15.092,1.194-2.8,3.981-4.394,6.609-5.625,2.825-1.327,5.771-2.324,8.254-4.235,2.863-2.184,5-5.232,4.444-8.971l-2.127.59c.832,3.1-.286,6.1-1.9,8.749-1.829,3.016-4.165,5.714-6.19,8.565-1.9,2.73-3.657,5.752-3.962,9.149a7.9,7.9,0,0,0,1.238,5.486c1.556,1.9,4.279,1.333,6.349.749,8.3-2.355,13.574-9.993,19.682-15.549a34.588,34.588,0,0,1,5.4-4.108c2.3-1.4,4.762-2.54,7.187-3.721a89.312,89.312,0,0,0,13.4-8.025,132.357,132.357,0,0,0,22.419-21.136c.851-.978,1.689-1.975,2.54-2.971l-1.765-1.022c-1.816,5.587-6.184,9.739-10.324,13.689a86.815,86.815,0,0,0-6.247,6.349,31.84,31.84,0,0,0-4.984,7.936,42.364,42.364,0,0,1-2.4,4.99,17.177,17.177,0,0,1-2.647,3.257A75.134,75.134,0,0,1,869,74.919a25.26,25.26,0,0,0-5.638,5.638c-1.613,2.419-2.73,5.879-1.441,8.666,1.346,2.914,5.028,3.809,7.924,3.041,3.657-.94,6.044-4.3,8.076-7.238l-1.816-1.067L867.7,96.766c-1.365,2.076-2.882,4.108-4.07,6.292-1.01,1.86-1.5,4.082-.241,5.962,2.2,3.27,6.921,4.317,10.6,3.968a19.8,19.8,0,0,0,10.952-4.9c3.6-3.086,6.349-7.073,9-10.958l-2.07-.559c.394,3.39-1.708,6.152-3.771,8.609-2.362,2.806-4.711,5.473-6.063,8.933-1.492,3.809-1.9,7.892-2.7,11.86a34.008,34.008,0,0,1-4.33,11.066,69.438,69.438,0,0,1-7.454,9.7c-2.686,3.041-5.4,6.063-8.254,8.959-5.746,5.828-12.222,10.793-20.317,12.743-8.362,2.019-17.142,1.27-25.58.444-6.819-.635-14.044-1.473-20.127-4.857a19.5,19.5,0,0,1-7.517-7.232,33.892,33.892,0,0,1-3.6-11.117c-.806-4.489-1.5-9.028-1.9-13.568a47.2,47.2,0,0,1,.356-13.276,27.8,27.8,0,0,1,4.241-10.546,24.125,24.125,0,0,1,7.5-6.774c5.079-3.1,11.174-5.454,14.679-10.5a12.607,12.607,0,0,0,1.765-3.765.635.635,0,0,0-1.175-.324Z" transform="translate(-275.469 0)" fill="#accbcb"/>
    <path id="Path_94" data-name="Path 94" d="M117.215,450.676a51.612,51.612,0,0,1-6.349,15.238,4.216,4.216,0,0,0-8.254-.508c-.711,2.743,1.378,5.352,3.314,7.416a65.725,65.725,0,0,1-4.692,9.206c-.565.927-1.4,1.956-2.47,1.81s-1.632-1.467-1.9-2.54l-3.733-14.66a3.814,3.814,0,1,1-6.235-4.394c-1.676,2.356-5.8,2.063-7.333-.394a5.289,5.289,0,0,1,2.419-7.263c-2.94-.9-4.032-4.889-2.686-7.619s4.349-4.374,7.352-5.009a3.02,3.02,0,0,1-2.889-2.927,5.638,5.638,0,0,1,1.816-4.057,10.317,10.317,0,0,1,5.562-2.965c-1.765.279-2.832-2.1-2.425-3.848.679-2.914,3.568-4.927,6.527-5.378s5.968.368,8.768,1.435c-.673.927-2.387.159-2.438-.984a2.4,2.4,0,0,1,2.216-2.209,6.984,6.984,0,0,1,3.333.686c3.244,1.27,6.559,2.54,9.174,4.825s4.444,5.809,3.752,9.219" transform="translate(-20.207 -141.775)" fill="#091010"/>
    <path id="Path_95" data-name="Path 95" d="M116.081,449.877a53.212,53.212,0,0,1-6.451,15l1.5.2a5.238,5.238,0,0,0-3.4-4.032,5.079,5.079,0,0,0-5.079,1.156,5.27,5.27,0,0,0-1.409,5.27,13.527,13.527,0,0,0,3.5,5.371l-.229-.876a65.689,65.689,0,0,1-3.4,6.946,13.85,13.85,0,0,1-1.867,2.933c-.8.806-1.4.362-1.784-.559a26.908,26.908,0,0,1-.933-3.473L95.5,473.838l-2.057-8.089a.921.921,0,0,0-1.536-.406,3.067,3.067,0,0,1-4.025.743,3.035,3.035,0,0,1-.717-4.044c.635-1.035-.9-1.86-1.6-.94-1.333,1.771-4.489,1.428-5.682-.318-1.435-2.108-.1-5.079,2.038-6.063.781-.368.476-1.479-.222-1.708-2.343-.781-3.048-3.809-2.26-5.955,1.054-2.819,4.2-4.26,6.933-4.882a.946.946,0,0,0-.248-1.854,2,2,0,0,1-1.867-1.587,3.781,3.781,0,0,1,.876-3.092,9.282,9.282,0,0,1,5.714-3.4c1.041-.2.819-1.994-.254-1.9-1.308.14-1.7-1.632-1.5-2.641A5.791,5.791,0,0,1,91.9,424.08c3.5-2.121,7.746-1,11.308.343l-.425-1.613c-.349.413-.971-.254-.635-.8.571-.971,1.9-.819,2.819-.559a35.362,35.362,0,0,1,6.667,2.775c3.809,2.006,7.784,5.8,6.914,10.539-.235,1.27,1.714,1.809,1.949.533.94-5.194-2.571-9.676-6.819-12.2a44.549,44.549,0,0,0-7.092-3.175,6.44,6.44,0,0,0-4.006-.489,3.524,3.524,0,0,0-2.343,2.089,2.444,2.444,0,0,0,1,2.914,2.241,2.241,0,0,0,2.921-.279.978.978,0,0,0-.425-1.613c-4.584-1.727-10.038-2.667-14.076.8a6.548,6.548,0,0,0-2.489,5.308c.178,1.778,1.416,3.809,3.441,3.568l-.254-1.873c-3.022.584-6.184,2.54-7.511,5.39a4.838,4.838,0,0,0-.083,4.292,3.765,3.765,0,0,0,3.359,2.133l-.254-1.86c-3.492.8-7.327,2.882-8.362,6.584-.863,3.092.5,6.819,3.7,7.879l-.222-1.714c-3.175,1.5-4.7,6.038-2.47,8.946a5.574,5.574,0,0,0,8.654,0l-1.6-.94a4.73,4.73,0,1,0,7.683,5.518l-1.537-.407,2.419,9.46c.413,1.632.825,3.257,1.27,4.889a5.568,5.568,0,0,0,1.454,2.933,2.54,2.54,0,0,0,3.048.171,8.119,8.119,0,0,0,2.3-2.971,67.756,67.756,0,0,0,4.1-8.254.9.9,0,0,0-.229-.876c-1.759-1.9-4.635-5.213-2.444-7.8a3.4,3.4,0,0,1,5.962,1.746c.121.73,1.156.756,1.5.2a51.426,51.426,0,0,0,6.19-15.454c.171-.775-1-1.1-1.194-.33Z" transform="translate(-19.67 -141.141)"/>
  </g>
</svg>
